<svg xmlns="http://www.w3.org/2000/svg" xmlns:xlink="http://www.w3.org/1999/xlink" viewBox="0 0 700 757.48"><defs><style>.cls-1{isolation:isolate;}.cls-2{fill:#579255;mix-blend-mode:soft-light;}.cls-3{fill:#2a2a2c;}.cls-4{fill:url(#radial-gradient);}.cls-5{fill:#d0dd28;}.cls-6{fill:#8ac640;}</style><radialGradient id="radial-gradient" cx="350" cy="407.48" r="350" gradientUnits="userSpaceOnUse"><stop offset="0" stop-color="#009952"/><stop offset="0.75" stop-color="#8ac640"/><stop offset="1" stop-color="#d0dd28"/></radialGradient></defs><title>Icon 2</title><g class="cls-1"><g id="Layer_2" data-name="Layer 2"><g id="Layer_1-2" data-name="Layer 1"><path class="cls-2" d="M614.1,616.5l.19.06C614.15,616.56,614.09,616.54,614.1,616.5Z"/><path class="cls-2" d="M577.91,735.11l-.11,0,0,0Z"/><circle class="cls-3" cx="350" cy="407.48" r="160.95"/><path class="cls-4" d="M669.34,376.82H546.91A197.84,197.84,0,0,0,541,350.63l82.45-34.09a20.44,20.44,0,0,0-15.63-37.78l-82.45,34.1a201.24,201.24,0,0,0-16.06-25l99.4-99.4a25.55,25.55,0,1,0-36.13-36.13l-99,99a199.3,199.3,0,0,0-28.79-19.09l21.94-52.92A20.44,20.44,0,0,0,429,163.65L407,216.57a197.29,197.29,0,0,0-26.36-6V88.14a30.66,30.66,0,0,0-61.32,0V210.57a197,197,0,0,0-23.65,5.23l-34.17-82.73A23,23,0,0,0,219,150.63l34.19,82.76a200,200,0,0,0-24.74,16.34l-99.81-99.81a25.55,25.55,0,0,0-36.13,36.13l99.8,99.8a200.52,200.52,0,0,0-17.54,26.8L92.37,278.46A20.44,20.44,0,0,0,76.7,316.22l82.4,34.19a197.68,197.68,0,0,0-6,26.41H30.66a30.66,30.66,0,0,0,0,61.32H153.09A197.84,197.84,0,0,0,159,464.33l-82.45,34.1A20.44,20.44,0,1,0,92.22,536.2l82.45-34.1A199.33,199.33,0,0,0,193.84,531l-100,100A25.55,25.55,0,0,0,130,667.19L230.39,566.75a199,199,0,0,0,24.84,16l-21.94,52.93a20.44,20.44,0,1,0,37.76,15.65L293,598.4a198.83,198.83,0,0,0,26.36,6V726.82a30.66,30.66,0,0,0,61.32,0V604.39a197,197,0,0,0,23.65-5.22l34.17,82.73A23,23,0,0,0,481,664.34L446.8,581.58a200.49,200.49,0,0,0,24.83-16.42l45.51,45.51a25.55,25.55,0,0,0,36.13-36.13L507.75,529a200.08,200.08,0,0,0,17.47-26.71l82.41,34.19a20.44,20.44,0,0,0,15.67-37.75l-82.4-34.19a198.18,198.18,0,0,0,6-26.42H669.34a30.66,30.66,0,0,0,0-61.32ZM350,568.43c-88.75,0-160.95-72.2-160.95-160.95s72.2-161,161-161,161,72.2,161,161S438.75,568.43,350,568.43Z"/><path class="cls-5" d="M20.07,292.72A20.43,20.43,0,1,0,9,266,20.44,20.44,0,0,0,20.07,292.72Z"/><circle class="cls-5" cx="349.81" cy="19.16" r="19.16"/><circle class="cls-5" cx="471.31" cy="114.84" r="20.44" transform="translate(88.67 413.02) rotate(-51.62)"/><path class="cls-5" d="M589.17,621.29a25.56,25.56,0,1,0,18.06,7.49A25.48,25.48,0,0,0,589.17,621.29Zm9,34.58a12.77,12.77,0,1,1,3.74-9A12.65,12.65,0,0,1,598.2,655.87Z"/><path class="cls-5" d="M236.52,681.24a20.45,20.45,0,1,0,11,26.71A20.39,20.39,0,0,0,236.52,681.24Zm-.75,21.82a7.65,7.65,0,0,1-10,4.14,7.67,7.67,0,0,1-4.14-10,7.66,7.66,0,0,1,14.16,5.87Z"/><path class="cls-5" d="M222.86,113.06a12.78,12.78,0,0,0,0-25.55,12.58,12.58,0,0,0-4.88,1,12.77,12.77,0,0,0,4.89,24.57ZM217,97.84a6.39,6.39,0,1,1,0,4.89A6.34,6.34,0,0,1,217,97.84Z"/><path class="cls-5" d="M629,144.77a12.77,12.77,0,1,0-11.81-7.89A12.75,12.75,0,0,0,629,144.77Zm-2.45-18.67a6.29,6.29,0,0,1,2.44-.49,6.38,6.38,0,0,1,2.45,12.28,6.29,6.29,0,0,1-2.44.49,6.38,6.38,0,0,1-2.45-12.28Z"/><path class="cls-5" d="M472.26,702.88A12.77,12.77,0,1,0,489,709.8,12.77,12.77,0,0,0,472.26,702.88Z"/><path class="cls-5" d="M38,523.36a12.77,12.77,0,1,0,16.69,6.91A12.76,12.76,0,0,0,38,523.36Z"/><path class="cls-6" d="M468.81,463.94h0s-.54-.17-1.34-.37c2.37-.68,6.08-3.72,6.08-3.72s-4.69-.41-7,.31c.56-.61.92-1,.92-1h0a23.54,23.54,0,0,0-6.23,1c.67-.73,1.12-1.3,1.12-1.3h0s-4.43.14-6.66,1.21c.77-.83,1.29-1.52,1.29-1.52h0s-5,.21-7.07,1.47a21.05,21.05,0,0,0,1.44-1.73h0s-5.48.28-7.37,1.71c.61-.79,1.48-1.89,1.48-1.89h0s-5.79.33-7.55,1.86c.56-.81,1.39-1.92,1.39-1.92h0v0s-5.89.38-7.66,1.93c.51-.81,1.22-1.83,1.22-1.83h0s-6.12.41-7.8,2c.45-.79,1.05-1.75,1.05-1.75h0s-6.33.43-7.95,2.11c.38-.74.89-1.63.89-1.63h0s-6.57.45-8.13,2.18c.31-.68.72-1.45.72-1.45h0v0s-7.68.51-8.53,2.6c.24-1,.89-2.82.89-2.82h0s-7.74,1.66-8.78,3.73a1.87,1.87,0,0,0-.07.18s.11-.51.18-.91.09-.55.14-.83c1.95-.7,3.35-1.28,3.35-1.28s-.88-.58-1.78-1.22a14.56,14.56,0,0,1-1.9-1.52c0-.05-.05-.09,0-.1,3,1.8,14.05-4.75,14.05-4.75h0s-1.51-.64-2.69-1.22c-.81-.41-1.48-.78-1.39-.88a1.71,1.71,0,0,0,.61.28c3.51.89,12.75-5.81,12.75-5.81h0s-1.61-.59-2.85-1l-1.23-.4.27.05c3.37.32,11.42-6.79,11.42-6.79h0s-2.69-.34-4.07-.68c3.15.35,9.25-7.67,9.25-7.67h0s-1.2.05-2.23,0c3.15-.78,7.9-7.9,7.9-7.9h0s-1.37.17-2.5.24c3-1,7.18-8.07,7.18-8.07h0v0s-1.47.3-2.64.47c2.83-1.21,6.46-8.19,6.46-8.19h0v0s-1.55.46-2.74.73c2.69-1.45,5.81-8.27,5.81-8.27h0l0,0s-1.65.62-2.82,1c2.54-1.54,5.24-8.33,5.24-8.33h0s-1.57.71-2.71,1.18c2.37-1.78,4.6-8.28,4.6-8.28h0s-1.07.49-2.41,1.25c2.12-2.11,3.85-8.08,3.85-8.08h0s-.89.46-2,1.17c1.83-2.39,3.11-7.7,3.11-7.7h0s-.72.42-1.67,1.06A28.52,28.52,0,0,0,456,363.3l0,0v0s-.53.36-1.3.91c1.27-2.65,1.65-8.39,1.65-8.39s-3.77,3.89-5,6.55c0-1-.1-1.67-.1-1.67v0a32.18,32.18,0,0,0-4.05,6.31c0-1.17-.11-2-.11-2h0s-3.38,4-4.37,6.83c0-1.35-.12-2.36-.12-2.36h0s-3.92,4.51-4.7,7.34c0-1.52-.11-2.68-.11-2.68h0s-4.42,4.93-5,7.73c-.08-1.19-.17-2.84-.17-2.84h0s-4.8,5.16-5.19,7.93c-.12-1.15-.23-2.8-.23-2.8h0v0s-5,5.2-5.44,8c-.16-1.11-.3-2.59-.3-2.59h0s-5.38,5.32-5.69,8.08c-.2-1.05-.38-2.38-.38-2.38v0s-5.73,5.41-5.95,8.17c-.23-1-.44-2.15-.44-2.15h0s-6.12,5.47-6.27,8.24c-.25-.86-.46-1.87-.46-1.87h0v0s-7.39,6.21-6.52,8.78c-.58-1.1-1.42-3.29-1.42-3.29h0s-6.7,7.17-6,9.87a2,2,0,0,0,.08.22s-.32-.56-.58-1c-.62-1-1.46-2.27-1.46-2.27h0l0,0s-6.94,7.47-5.78,10.27a1.34,1.34,0,0,0,.35.5c-.11.07-.58-.47-1.08-1.13-.73-.95-1.54-2.17-1.54-2.17h0s-7.72,8.2-5.63,10.69c0,0-.07,0-.13,0a15.77,15.77,0,0,1-1.78-1.63c-.75-.76-1.42-1.5-1.42-1.5a46.89,46.89,0,0,0-3.91,5.56c-.91.21-3.07,1.25-2.95.8,3.51-1.57,7.77-15.31,7.77-15.31h0v0a30.08,30.08,0,0,1-4.59.67s0,0,0,0c3.76-1,7.79-14,7.79-14s-1.22.06-2.52.08a19.72,19.72,0,0,1-2.9-.1c-.07,0-.12-.05-.11-.08,4-.41,6.78-14.18,6.78-14.18h0v0s-1.84.38-3.36.61c-1.05.16-1.94.25-2,.11a2.08,2.08,0,0,0,.77-.16c3.71-1.52,5.71-14.09,5.71-14.09h0v0s-2,.45-3.45.84c-.63.16-1.18.31-1.45.41a1.47,1.47,0,0,0,.28-.14c3.27-1.89,4.53-14.06,4.53-14.06h0s-2.86,1.33-4.44,1.87c3.26-1.67,2.42-13.57,2.42-13.57l0,0h0s-1.16.78-2.21,1.4c2.48-2.75,1.55-13,1.55-13h0s-1.31,1-2.42,1.74c2.31-2.86,1.21-12.73,1.21-12.73l0,0v0s-1.38,1.18-2.52,2.07c2.13-3,.85-12.51.85-12.51h0v0s-1.43,1.39-2.58,2.38c1.95-3.14.52-12.29.52-12.29l0,0v0s-1.51,1.62-2.61,2.73c1.85-3.16.23-12.13.23-12.13h0s-1.43,1.68-2.47,2.88c1.58-3.35-.16-11.8-.16-11.8h0a33.9,33.9,0,0,0-2.19,2.79c1.18-3.58-.6-11.24-.6-11.24v0h0s-.87,1-1.87,2.51c.76-3.77-1-10.5-1-10.5h0v0s-.71.9-1.56,2.2c.38-3.82-1.32-9.75-1.32-9.75l0,0v0s-.52.73-1.23,1.82c.05-3.78-2.92-10.61-2.92-10.61s-3,6.83-2.92,10.61c-.71-1.09-1.23-1.82-1.23-1.82v0l0,0s-1.7,5.93-1.32,9.75c-.85-1.3-1.56-2.2-1.56-2.2v0h0s-1.76,6.73-1,10.5c-1-1.48-1.87-2.51-1.87-2.51h0v0s-1.78,7.66-.6,11.24a33.9,33.9,0,0,0-2.19-2.79h0s-1.74,8.45-.16,11.8c-1-1.2-2.47-2.88-2.47-2.88h0s-1.62,9,.23,12.13c-1.1-1.11-2.61-2.73-2.61-2.73v0l0,0s-1.43,9.15.52,12.29c-1.15-1-2.58-2.38-2.58-2.38v0h0s-1.28,9.53.85,12.51c-1.14-.89-2.52-2.07-2.52-2.07v0l0,0s-1.1,9.87,1.21,12.73c-1.11-.75-2.42-1.74-2.42-1.74h0s-.93,10.21,1.55,13c-1.05-.62-2.21-1.4-2.21-1.4h0l0,0s-.84,11.9,2.42,13.57c-1.58-.54-4.44-1.87-4.44-1.87h0S325.74,384,329,385.86a1.47,1.47,0,0,0,.28.14c-.27-.1-.82-.25-1.45-.41-1.49-.39-3.45-.84-3.45-.84v0h0s2,12.57,5.71,14.09a2.08,2.08,0,0,0,.77.16c0,.14-.91.05-2-.11-1.52-.23-3.36-.61-3.36-.61v0h0s2.79,13.77,6.78,14.18c0,0,0,.06-.11.08a19.72,19.72,0,0,1-2.9.1c-1.3,0-2.52-.08-2.52-.08s4,13,7.79,14c0,0,0,0,0,0a30.08,30.08,0,0,1-4.59-.67v0h0s4.26,13.74,7.77,15.31c.12.45-2.05-.59-2.95-.8a46.89,46.89,0,0,0-3.91-5.56s-.67.74-1.42,1.5a15.77,15.77,0,0,1-1.78,1.63c-.06,0-.11,0-.13,0,2.09-2.49-5.63-10.69-5.63-10.69h0s-.81,1.22-1.54,2.17c-.5.66-1,1.2-1.08,1.13a1.34,1.34,0,0,0,.35-.5c1.16-2.8-5.78-10.27-5.78-10.27l0,0h0s-.84,1.28-1.46,2.27c-.26.42-.58,1-.58,1a2,2,0,0,0,.08-.22c.68-2.7-6-9.87-6-9.87h0s-.84,2.19-1.42,3.29c.87-2.57-6.52-8.78-6.52-8.78v0h0s-.21,1-.46,1.87c-.15-2.77-6.27-8.24-6.27-8.24h0s-.21,1.19-.44,2.15c-.22-2.76-5.95-8.17-5.95-8.17v0s-.18,1.33-.38,2.38c-.31-2.76-5.69-8.08-5.69-8.08h0s-.14,1.48-.3,2.59c-.42-2.79-5.44-8-5.44-8v0h0s-.11,1.65-.23,2.8c-.39-2.77-5.19-7.93-5.19-7.93h0s-.09,1.65-.17,2.84c-.53-2.8-5-7.73-5-7.73h0s-.12,1.16-.11,2.68c-.78-2.83-4.7-7.34-4.7-7.34h0s-.11,1-.12,2.36C256.35,369,253,365,253,365h0s-.08.86-.11,2a32.18,32.18,0,0,0-4-6.31v0s-.06.68-.1,1.67c-1.21-2.66-5-6.55-5-6.55s.38,5.74,1.65,8.39c-.77-.55-1.3-.91-1.3-.91v0l0,0a28.52,28.52,0,0,0,2.48,7.29c-1-.64-1.67-1.06-1.67-1.06h0s1.28,5.31,3.11,7.7c-1.13-.71-2-1.17-2-1.17h0s1.73,6,3.85,8.08c-1.34-.76-2.41-1.25-2.41-1.25h0s2.23,6.5,4.6,8.28c-1.14-.47-2.71-1.18-2.71-1.18h0s2.7,6.79,5.24,8.33c-1.17-.38-2.82-1-2.82-1l0,0h0s3.12,6.82,5.81,8.27c-1.19-.27-2.74-.73-2.74-.73v0h0s3.63,7,6.46,8.19c-1.17-.17-2.64-.47-2.64-.47v0h0s4.17,7.07,7.18,8.07c-1.13-.07-2.5-.24-2.5-.24h0s4.75,7.12,7.9,7.9c-1,0-2.23,0-2.23,0h0s6.1,8,9.25,7.67c-1.38.34-4.07.68-4.07.68h0s8.05,7.11,11.42,6.79l.27-.05-1.23.4c-1.24.43-2.85,1-2.85,1h0s9.24,6.7,12.75,5.81a1.71,1.71,0,0,0,.61-.28c.09.1-.58.47-1.39.88-1.18.58-2.69,1.22-2.69,1.22h0S302,459.08,305,457.28c0,0,0,.05,0,.1a14.56,14.56,0,0,1-1.9,1.52c-.9.64-1.78,1.22-1.78,1.22s1.4.58,3.35,1.28c.05.28.09.57.14.83s.18.91.18.91a1.87,1.87,0,0,0-.07-.18c-1-2.07-8.78-3.73-8.78-3.73h0s.65,1.82.89,2.82c-.85-2.09-8.53-2.6-8.53-2.6v0h0s.41.77.72,1.45c-1.56-1.73-8.13-2.18-8.13-2.18h0s.51.89.89,1.63c-1.62-1.68-7.95-2.11-7.95-2.11h0s.6,1,1.05,1.75c-1.68-1.61-7.8-2-7.8-2h0s.71,1,1.22,1.83c-1.77-1.55-7.66-1.93-7.66-1.93v0h0s.83,1.11,1.39,1.92c-1.76-1.53-7.55-1.86-7.55-1.86h0s.87,1.1,1.48,1.89c-1.89-1.43-7.37-1.71-7.37-1.71h0a21.05,21.05,0,0,0,1.44,1.73c-2.07-1.26-7.07-1.47-7.07-1.47h0s.52.69,1.29,1.52c-2.23-1.07-6.66-1.21-6.66-1.21h0s.45.57,1.12,1.3a23.54,23.54,0,0,0-6.23-1h0s.36.44.92,1c-2.33-.72-7-.31-7-.31s3.71,3,6.08,3.72c-.8.2-1.34.37-1.34.37h0a22.35,22.35,0,0,0,5.88,2.55c-.94.27-1.62.52-1.62.52h0s4,2.23,6.48,2.42c-1.09.34-1.88.67-1.88.67h0s4.61,2.35,7.08,2.24c-1.21.41-2.11.83-2.11.83h0s5.2,2.38,7.58,1.95c-.92.44-2.21,1-2.21,1h0s5.62,2.32,7.93,1.68c-.87.49-2.13,1.15-2.13,1.15h0s5.83,2.15,8.15,1.41c-.8.55-1.9,1.21-1.9,1.21h0s6.17,2,8.41,1.09c-.73.58-1.68,1.26-1.68,1.26h0s6.48,1.84,8.66.76c-.63.59-1.44,1.26-1.44,1.26h0s6.8,1.64,8.91.42c-.53.57-1.18,1.19-1.18,1.19h0v0s8,1.6,9.45-.23c-.51.91-1.68,2.52-1.68,2.52h0s8.47.19,10-1.65l.11-.16s-.23.47-.4.85c-.38.87-.85,2-.85,2h0v0s8.83-.42,10.13-2.59a1.11,1.11,0,0,0,.16-.45c.1,0,0,.55-.2,1.18-.26.9-.65,2-.65,2h0s9.74-1.06,10.24-3.47c0,0,0,0,.05.07a9.5,9.5,0,0,1-.09,1.77c-.09.78-.19,1.52-.19,1.52s2.2-.49,4.56-1.26l.49.53c.32.35.57.66.52.71a.85.85,0,0,0-.25-.25c-1.53-1-7.24,1.58-7.24,1.58h0s.66.62,1.18,1.08c.22.19.41.36.52.44l-.12-.07c-1.58-.74-6.95,2-6.95,2h0s1.24.73,1.85,1.19c-1.48-.79-6.24,2.68-6.24,2.68h0s.61.23,1.12.46c-1.74-.2-5.77,2.86-5.77,2.86h0s.72.23,1.31.45c-1.75-.12-5.6,2.92-5.6,2.92h0s.82.21,1.47.4c-1.76,0-5.42,3-5.42,3h0s.92.17,1.61.34c-1.77.1-5.24,3.07-5.24,3.07h0s1,.14,1.76.26c-1.75.14-5.1,3.13-5.1,3.13h0l1.8.17c-1.78.29-4.88,3.19-4.88,3.19h0a15.57,15.57,0,0,0,1.69.09c-1.77.5-4.53,3.21-4.53,3.21h0a14.15,14.15,0,0,0,1.49,0,17.12,17.12,0,0,0-4.13,3.17h0s.55,0,1.29,0a18.21,18.21,0,0,0-3.74,3.08h0s.43,0,1,0a19.58,19.58,0,0,0-3.71,3.92,19.34,19.34,0,0,0,5.12-1.71c-.29.56-.46.94-.46.94h0v0a17.89,17.89,0,0,0,4.37-2.09c-.33.67-.53,1.17-.53,1.17h0a16.94,16.94,0,0,0,4.61-2.4c-.37.76-.59,1.37-.59,1.37h0s3.62-1.35,4.83-2.75a15.33,15.33,0,0,0-.64,1.57h0s3.94-1.58,5-3.07c-.24.71-.6,1.7-.6,1.7h0s4.12-1.77,5-3.3c-.2.71-.51,1.7-.51,1.7h0s4.15-1.89,5-3.45c-.14.69-.37,1.6-.37,1.6h0s4.27-2,5-3.64c-.09.67-.25,1.5-.25,1.5h0s4.37-2.2,5-3.84c0,.63-.15,1.38-.15,1.38h0s4.48-2.36,5-4c0,.56-.06,1.2-.06,1.2h0v0s5.15-2.84,5.06-4.52c.16.75.29,2.18.29,2.18h0s4.77-3.71,4.77-5.44c0-.05,0-.1,0-.15,0,.13.09.38.17.66.2.67.49,1.52.49,1.52h0s4.75-4.09,4.49-5.89a.93.93,0,0,0-.12-.33c.06,0,.24.33.43.76.26.64.55,1.43.55,1.43h0s5.06-4.7,4.27-6.32c0,0,0,0,.06,0a9.24,9.24,0,0,1,.74,1.07c.3.5.57,1,.57,1s4.44-5,4-6.65h0a12.58,12.58,0,0,1,.82,1.91h0s.66-.74,1.48-1.76l-1.89,27.87a3.82,3.82,0,0,0,3.81,4.08h.43a3.82,3.82,0,0,0,3.81-4.08l-1.86-27.65c.73.9,1.3,1.54,1.3,1.54h0a12.58,12.58,0,0,1,.82-1.91h0c-.49,1.68,4,6.65,4,6.65s.27-.47.57-1a8.12,8.12,0,0,1,.74-1.07s0,0,.06,0c-.79,1.62,4.27,6.32,4.27,6.32h0s.29-.79.55-1.43c.19-.43.37-.8.43-.76a.93.93,0,0,0-.12.33c-.26,1.8,4.49,5.89,4.49,5.89h0s.29-.85.49-1.52c.08-.28.15-.53.17-.66,0,0,0,.1,0,.15,0,1.73,4.77,5.44,4.77,5.44h0s.14-1.43.3-2.18c-.09,1.68,5.06,4.52,5.06,4.52v0h0s0-.64-.06-1.2c.55,1.66,5,4,5,4h0s-.1-.75-.15-1.38c.64,1.64,5,3.84,5,3.84h0s-.16-.83-.25-1.5c.73,1.6,5,3.64,5,3.64h0s-.23-.91-.37-1.6c.84,1.56,5,3.45,5,3.45h0s-.31-1-.51-1.7c.88,1.53,5,3.3,5,3.3h0s-.36-1-.6-1.7c1,1.49,5,3.07,5,3.07h0a15.33,15.33,0,0,0-.64-1.57c1.21,1.4,4.83,2.75,4.83,2.75h0s-.22-.61-.59-1.37a16.94,16.94,0,0,0,4.61,2.4h0s-.2-.5-.53-1.17a17.89,17.89,0,0,0,4.37,2.09v0h0s-.17-.38-.46-.94a19.34,19.34,0,0,0,5.12,1.71,19.58,19.58,0,0,0-3.71-3.92c.62,0,1,0,1,0h0a18.21,18.21,0,0,0-3.74-3.08c.74,0,1.29,0,1.29,0h0a17.12,17.12,0,0,0-4.13-3.17,14.15,14.15,0,0,0,1.49,0h0s-2.76-2.71-4.53-3.21a15.57,15.57,0,0,0,1.69-.09h0s-3.1-2.9-4.88-3.19l1.8-.17h0s-3.35-3-5.1-3.13c.72-.12,1.76-.26,1.76-.26h0s-3.47-3-5.24-3.07c.69-.17,1.61-.34,1.61-.34h0s-3.66-3-5.42-3c.65-.19,1.47-.4,1.47-.4h0s-3.85-3-5.6-2.92c.59-.22,1.31-.45,1.31-.45h0s-4-3.06-5.77-2.86c.51-.23,1.12-.46,1.12-.46h0s-4.76-3.47-6.24-2.68c.61-.46,1.85-1.19,1.85-1.19h0s-5.37-2.76-6.95-2l-.12.07c.11-.08.3-.25.52-.44.52-.46,1.18-1.08,1.18-1.08h0s-5.71-2.58-7.24-1.58a.85.85,0,0,0-.25.25c-.05-.05.2-.36.52-.71l.49-.53c2.36.77,4.56,1.26,4.56,1.26s-.1-.74-.19-1.52a9.5,9.5,0,0,1-.09-1.77s0-.07.05-.07c.5,2.41,10.24,3.47,10.24,3.47h0s-.39-1.1-.65-2c-.18-.63-.3-1.17-.2-1.18a1.11,1.11,0,0,0,.16.45c1.3,2.17,10.13,2.59,10.13,2.59v0h0s-.47-1.15-.85-2c-.17-.38-.4-.85-.4-.85l.11.16c1.56,1.84,10,1.65,10,1.65h0s-1.17-1.61-1.68-2.52c1.43,1.83,9.45.23,9.45.23v0h0s-.65-.62-1.18-1.19c2.11,1.22,8.91-.42,8.91-.42h0s-.81-.67-1.44-1.26c2.18,1.08,8.66-.76,8.66-.76h0s-1-.68-1.68-1.26c2.24.91,8.41-1.09,8.41-1.09h0s-1.1-.66-1.9-1.21c2.32.74,8.15-1.41,8.15-1.41h0s-1.26-.66-2.13-1.15c2.31.64,7.93-1.68,7.93-1.68h0s-1.29-.58-2.21-1c2.38.43,7.58-1.95,7.58-1.95h0s-.9-.42-2.11-.83c2.47.11,7.08-2.24,7.08-2.24h0s-.79-.33-1.88-.67c2.51-.19,6.48-2.42,6.48-2.42h0s-.68-.25-1.62-.52a22.35,22.35,0,0,0,5.88-2.55Z"/></g></g></g></svg>