<svg xmlns="http://www.w3.org/2000/svg" viewBox="0 0 277.23 300"><defs><style>.cls-1{fill:#f0f8f1;}</style></defs><title>Icon 1a</title><g id="Layer_2" data-name="Layer 2"><g id="Layer_1-2" data-name="Layer 1"><path class="cls-1" d="M265.09,149.24H216.6a79.19,79.19,0,0,0-2.35-10.37l32.65-13.51a8.1,8.1,0,1,0-6.19-15l-32.65,13.51a80.54,80.54,0,0,0-6.36-9.9l39.36-39.37a10.12,10.12,0,0,0-14.31-14.31l-39.2,39.2A79.62,79.62,0,0,0,176.15,92l8.69-21a8.09,8.09,0,0,0-15-6.19l-8.69,21a78.66,78.66,0,0,0-10.44-2.37V34.91a12.14,12.14,0,1,0-24.28,0V83.4a76.16,76.16,0,0,0-9.37,2.07L103.57,52.7a9.11,9.11,0,1,0-16.83,7l13.54,32.77a80.26,80.26,0,0,0-9.8,6.48L51,59.38A10.12,10.12,0,0,0,36.64,73.69l39.53,39.52a78.22,78.22,0,0,0-7,10.62L36.58,110.28a8.1,8.1,0,0,0-6.2,15L63,138.78a79,79,0,0,0-2.38,10.46H12.14a12.14,12.14,0,1,0,0,24.28H60.63A77.42,77.42,0,0,0,63,183.9L30.34,197.4a8.09,8.09,0,1,0,6.18,15l32.66-13.5a79.28,79.28,0,0,0,7.59,11.46L37.16,249.93a10.12,10.12,0,0,0,14.31,14.31l39.78-39.78a79.52,79.52,0,0,0,9.83,6.33l-8.69,21a8.1,8.1,0,1,0,15,6.2L116,237a78.33,78.33,0,0,0,10.44,2.38v48.49a12.14,12.14,0,1,0,24.28,0V239.37a78.91,78.91,0,0,0,9.37-2.07l13.53,32.76a9.1,9.1,0,1,0,16.83-6.95L177,230.33a79,79,0,0,0,9.84-6.5l18,18a10.12,10.12,0,0,0,14.31-14.31l-18-18A78.23,78.23,0,0,0,208,198.94l32.64,13.54a8.09,8.09,0,0,0,6.21-14.95L214.22,184a77.22,77.22,0,0,0,2.38-10.47h48.49a12.14,12.14,0,1,0,0-24.28ZM138.62,225.13a63.75,63.75,0,1,1,63.74-63.75A63.82,63.82,0,0,1,138.62,225.13Z"/><path class="cls-1" d="M8,115.93a8.09,8.09,0,1,0-4.38-10.58A8.1,8.1,0,0,0,8,115.93Z"/><circle class="cls-1" cx="138.54" cy="7.59" r="7.59"/><circle class="cls-1" cx="186.66" cy="45.48" r="8.09" transform="translate(35.12 163.58) rotate(-51.62)"/><path class="cls-1" d="M233.34,246.06a10.13,10.13,0,1,0,7.15,3A10.09,10.09,0,0,0,233.34,246.06Zm3.58,13.7a5.07,5.07,0,1,1,1.48-3.58A5.06,5.06,0,0,1,236.92,259.76Z"/><path class="cls-1" d="M93.67,269.81a8.09,8.09,0,1,0-6.2,14.95,8.09,8.09,0,1,0,6.2-14.95Zm-.29,8.64a3,3,0,0,1-4,1.64,3,3,0,0,1,1.17-5.84,2.88,2.88,0,0,1,1.15.23,3,3,0,0,1,1.65,4Z"/><path class="cls-1" d="M88.26,44.78a5.13,5.13,0,0,0,1.94-.39,5,5,0,1,0-1.94.39Zm-2.33-6a2.54,2.54,0,1,1,0,1.93A2.5,2.5,0,0,1,85.93,38.75Z"/><path class="cls-1" d="M249.12,57.34a5.06,5.06,0,1,0-4.67-3.13A5,5,0,0,0,249.12,57.34Zm-1-7.4a2.53,2.53,0,1,1,1,4.87,2.53,2.53,0,0,1-1-4.87Z"/><path class="cls-1" d="M187,278.37a5.06,5.06,0,1,0,6.61,2.74A5.06,5.06,0,0,0,187,278.37Z"/><path class="cls-1" d="M15.05,207.28A5.06,5.06,0,1,0,21.66,210,5,5,0,0,0,15.05,207.28Z"/><path class="cls-1" d="M185.67,183.74h0s-.21-.07-.53-.15a9.37,9.37,0,0,0,2.41-1.47,10.12,10.12,0,0,0-2.78.12c.22-.24.36-.41.36-.41h0a9.38,9.38,0,0,0-2.46.39c.26-.29.44-.51.44-.51h0a8.79,8.79,0,0,0-2.64.48,7.5,7.5,0,0,0,.51-.6h0a8,8,0,0,0-2.8.58c.34-.37.57-.68.57-.68h0a7.5,7.5,0,0,0-2.92.68l.58-.75h0s-2.29.13-3,.74c.22-.32.55-.76.55-.76h0s-2.34.15-3,.76c.2-.32.48-.72.48-.72h0s-2.42.17-3.09.8c.18-.31.42-.69.42-.69h0s-2.51.17-3.15.83c.15-.29.35-.64.35-.64h0s-2.61.18-3.23.86c.13-.27.29-.57.29-.57h0s-3,.2-3.38,1c.1-.4.35-1.12.35-1.12h0s-3.07.65-3.48,1.47l0,.07s.05-.2.08-.35,0-.22,0-.33c.77-.28,1.33-.51,1.33-.51l-.71-.48a5.24,5.24,0,0,1-.75-.61s0,0,0,0c1.18.72,5.56-1.88,5.56-1.88h0s-.59-.25-1.06-.48-.59-.31-.55-.35a.66.66,0,0,0,.24.11c1.39.35,5-2.3,5-2.3h0l-1.13-.4-.49-.16.11,0c1.33.13,4.52-2.69,4.52-2.69h0s-1.06-.14-1.61-.27c1.25.14,3.66-3,3.66-3h0s-.47,0-.88,0c1.25-.31,3.13-3.13,3.13-3.13h0s-.54.07-1,.09c1.19-.39,2.84-3.19,2.84-3.19h0l-1.05.18c1.12-.48,2.56-3.24,2.56-3.24h0s-.62.17-1.09.28c1.07-.57,2.3-3.27,2.3-3.27h0s-.65.24-1.12.39c1-.6,2.08-3.29,2.08-3.29h0l-1.07.47c.93-.7,1.82-3.28,1.82-3.28h0s-.43.19-1,.49a10,10,0,0,0,1.53-3.2h0s-.35.18-.8.47a10.83,10.83,0,0,0,1.23-3.06h0l-.66.42a11.43,11.43,0,0,0,1-2.88h0l-.51.37a12.49,12.49,0,0,0,.65-3.33,12.89,12.89,0,0,0-2,2.6c0-.4,0-.66,0-.66h0a12.77,12.77,0,0,0-1.61,2.5c0-.46,0-.8,0-.8h0a11.84,11.84,0,0,0-1.74,2.7c0-.54,0-.94,0-.94h0a11,11,0,0,0-1.86,2.91c0-.6,0-1.06,0-1.06h0a10,10,0,0,0-2,3.06c0-.47-.07-1.13-.07-1.13h0s-1.9,2-2.06,3.15c-.05-.46-.09-1.11-.09-1.11h0s-2,2.06-2.15,3.17c-.07-.44-.12-1-.12-1h0s-2.13,2.11-2.25,3.2c-.08-.41-.15-.94-.15-.94h0s-2.27,2.14-2.36,3.23c-.09-.38-.17-.85-.17-.85h0s-2.43,2.17-2.48,3.26c-.1-.34-.19-.74-.19-.74h0s-2.93,2.46-2.58,3.48c-.23-.44-.56-1.3-.56-1.3h0s-2.65,2.84-2.38,3.91l0,.09-.23-.39c-.25-.4-.58-.9-.58-.9h0s-2.74,3-2.29,4.07a.56.56,0,0,0,.14.2s-.23-.19-.43-.45-.61-.86-.61-.86h0s-3.06,3.25-2.24,4.24h0a5.64,5.64,0,0,1-.71-.65c-.3-.3-.56-.59-.56-.59a18.52,18.52,0,0,0-1.55,2.2c-.36.08-1.22.5-1.17.32,1.39-.63,3.08-6.07,3.08-6.07h0a12.88,12.88,0,0,1-1.82.27v0c1.49-.39,3.08-5.54,3.08-5.54l-1,0a6.85,6.85,0,0,1-1.14,0l-.05,0c1.58-.16,2.69-5.61,2.69-5.61h0s-.73.15-1.33.25a1.9,1.9,0,0,1-.77,0,.82.82,0,0,0,.3-.07c1.47-.6,2.26-5.58,2.26-5.58h0l-1.37.33-.57.17.11-.06c1.3-.75,1.8-5.57,1.8-5.57h0s-1.13.52-1.76.74c1.29-.66,1-5.38,1-5.38h0s-.46.31-.88.55c1-1.09.62-5.13.62-5.13h0s-.51.4-1,.7c.92-1.14.48-5,.48-5h0s-.54.47-1,.82c.85-1.18.34-5,.34-5h0s-.57.55-1,.94c.77-1.24.2-4.87.2-4.87h0s-.6.64-1,1.08c.73-1.25.09-4.8.09-4.8h0l-1,1.14c.63-1.33-.06-4.67-.06-4.67h0s-.41.47-.87,1.11c.47-1.42-.24-4.45-.24-4.45h0s-.35.41-.75,1a12.41,12.41,0,0,0-.39-4.15h0s-.28.35-.61.86a13.13,13.13,0,0,0-.53-3.85h0s-.21.29-.49.72a14,14,0,0,0-1.15-4.2,14.28,14.28,0,0,0-1.16,4.2c-.28-.43-.49-.72-.49-.72h0a13.26,13.26,0,0,0-.52,3.85c-.34-.51-.62-.86-.62-.86h0a12.32,12.32,0,0,0-.4,4.15,12,12,0,0,0-.74-1h0s-.7,3-.24,4.45c-.45-.64-.86-1.11-.86-1.11h0s-.69,3.34-.06,4.67l-1-1.14h0s-.64,3.55.09,4.8c-.44-.44-1-1.08-1-1.08h0s-.56,3.63.21,4.87c-.46-.39-1-.94-1-.94h0s-.5,3.78.34,5c-.45-.35-1-.82-1-.82h0s-.44,3.91.48,5c-.44-.3-1-.7-1-.7h0s-.37,4,.61,5.13c-.41-.24-.87-.55-.87-.55h0s-.34,4.72,1,5.38c-.62-.22-1.76-.74-1.76-.74h0s.5,4.82,1.79,5.57l.11.06c-.1,0-.32-.1-.57-.17l-1.37-.33h0s.79,5,2.27,5.58a.73.73,0,0,0,.3.07,2,2,0,0,1-.78,0c-.6-.1-1.33-.25-1.33-.25h0s1.1,5.45,2.68,5.61c0,0,0,0,0,0a7,7,0,0,1-1.15,0l-1,0s1.6,5.15,3.09,5.54l0,0a12.88,12.88,0,0,1-1.82-.27h0s1.69,5.44,3.07,6.07c.05.18-.81-.24-1.17-.32a17.78,17.78,0,0,0-1.54-2.2l-.56.59a6.45,6.45,0,0,1-.71.65h-.05c.83-1-2.23-4.24-2.23-4.24h0s-.32.48-.61.86-.38.48-.43.45a.56.56,0,0,0,.14-.2c.46-1.11-2.29-4.07-2.29-4.07h0s-.33.5-.57.9c-.11.16-.23.39-.23.39l0-.09c.27-1.07-2.39-3.91-2.39-3.91h0s-.33.86-.56,1.3c.34-1-2.58-3.48-2.58-3.48h0s-.08.4-.18.74c-.06-1.09-2.48-3.26-2.48-3.26h0s-.08.47-.17.85c-.09-1.09-2.36-3.23-2.36-3.23h0s-.07.53-.15.94c-.12-1.09-2.25-3.2-2.25-3.2h0s-.06.59-.13,1c-.16-1.11-2.15-3.17-2.15-3.17h0s0,.65-.1,1.11c-.15-1.1-2-3.15-2-3.15h0s0,.66-.06,1.13a10,10,0,0,0-2-3.06h0a9.44,9.44,0,0,0,0,1.06,11,11,0,0,0-1.86-2.91h0a8.4,8.4,0,0,0,0,.94,11.58,11.58,0,0,0-1.73-2.7h0s0,.34,0,.8a12.92,12.92,0,0,0-1.6-2.5h0s0,.26,0,.66a12.89,12.89,0,0,0-2-2.6,12.49,12.49,0,0,0,.65,3.33l-.51-.37h0a11.43,11.43,0,0,0,1,2.88c-.37-.25-.66-.42-.66-.42h0a10.65,10.65,0,0,0,1.24,3.06c-.45-.29-.81-.47-.81-.47h0a10.13,10.13,0,0,0,1.52,3.2c-.52-.3-1-.49-1-.49h0s.88,2.58,1.82,3.28l-1.08-.47h0s1.08,2.69,2.08,3.29c-.46-.15-1.11-.39-1.11-.39h0s1.23,2.7,2.3,3.27c-.47-.11-1.08-.28-1.08-.28h0s1.43,2.76,2.56,3.24c-.47-.07-1-.18-1-.18h0s1.65,2.8,2.84,3.19c-.44,0-1-.09-1-.09h0s1.89,2.82,3.13,3.13c-.4,0-.88,0-.88,0h0s2.42,3.18,3.66,3c-.54.13-1.61.27-1.61.27h0s3.19,2.82,4.52,2.69l.11,0-.49.16-1.13.4h0s3.66,2.65,5,2.3a.64.64,0,0,0,.25-.11s-.23.19-.55.35c-.47.23-1.07.48-1.07.48h0s4.38,2.6,5.56,1.88c0,0,0,0,0,0a5.24,5.24,0,0,1-.75.61l-.7.48s.55.23,1.32.51l.06.33c0,.15.07.35.07.35l0-.07c-.41-.82-3.48-1.47-3.48-1.47h0s.26.72.35,1.12c-.33-.83-3.38-1-3.38-1h0s.16.3.28.57c-.62-.68-3.22-.86-3.22-.86h0s.2.35.35.64c-.64-.66-3.15-.83-3.15-.83h0s.24.38.42.69c-.66-.63-3.09-.8-3.09-.8h0s.28.4.48.72c-.7-.61-3-.76-3-.76h0l.56.76c-.7-.61-3-.74-3-.74h0l.59.75a7.5,7.5,0,0,0-2.92-.68h0a8.32,8.32,0,0,0,.58.68,8.11,8.11,0,0,0-2.81-.58h0s.2.27.5.6a8.74,8.74,0,0,0-2.63-.48h0s.17.22.44.51a9.49,9.49,0,0,0-2.47-.39h0s.14.17.37.41a10.12,10.12,0,0,0-2.78-.12,9.44,9.44,0,0,0,2.4,1.47l-.52.15h0a9,9,0,0,0,2.33,1c-.37.11-.64.21-.64.21h0a8.67,8.67,0,0,0,2.57,1,7.47,7.47,0,0,0-.75.27h0a8.09,8.09,0,0,0,2.81.88c-.48.17-.84.33-.84.33h0a7.72,7.72,0,0,0,3,.78l-.87.4h0s2.22.92,3.14.67l-.85.45h0s2.31.85,3.22.56c-.31.21-.75.47-.75.47h0s2.45.79,3.33.43c-.29.23-.66.5-.66.5h0s2.56.73,3.43.31c-.25.23-.57.49-.57.49h0s2.69.65,3.53.17c-.21.22-.47.46-.47.46h0s3.18.64,3.74-.09c-.2.36-.66,1-.66,1h0s3.35.08,4-.65l.05-.06s-.1.19-.16.33l-.34.8h0s3.5-.16,4-1a.64.64,0,0,0,.06-.18s0,.22-.08.46-.26.8-.26.8h0s3.86-.42,4.06-1.38c0,0,0,0,0,0a4,4,0,0,1,0,.7c0,.31-.07.6-.07.6s.87-.19,1.8-.5l.2.21c.12.14.22.27.2.29a.24.24,0,0,0-.1-.1c-.6-.4-2.86.62-2.86.62h0l.46.43.21.17,0,0c-.62-.29-2.75.8-2.75.8h0s.49.28.73.46c-.58-.31-2.47,1.07-2.47,1.07h0l.44.18c-.69-.08-2.29,1.14-2.29,1.14h0s.29.09.52.18c-.69,0-2.21,1.15-2.21,1.15h0l.58.16c-.7,0-2.15,1.19-2.15,1.19h0l.64.13c-.7,0-2.07,1.22-2.07,1.22h0l.69.11c-.69.05-2,1.24-2,1.24h0l.71.07a5.88,5.88,0,0,0-1.93,1.26h0a5.66,5.66,0,0,0,.67,0,6.32,6.32,0,0,0-1.79,1.27h0s.25,0,.59,0a6.88,6.88,0,0,0-1.63,1.26h0s.21,0,.51,0a7.15,7.15,0,0,0-1.48,1.23h.42a7.59,7.59,0,0,0-1.47,1.55,7.36,7.36,0,0,0,2-.68c-.11.22-.18.38-.18.38h0a7.09,7.09,0,0,0,1.74-.82,5,5,0,0,0-.22.46h0a6.66,6.66,0,0,0,1.83-1,4.59,4.59,0,0,0-.23.54h0a6.18,6.18,0,0,0,1.91-1.09c-.16.35-.26.63-.26.63h0a5.92,5.92,0,0,0,2-1.22l-.24.67h0s1.63-.7,2-1.31c-.08.29-.2.68-.2.68h0s1.65-.74,2-1.36c-.06.27-.15.63-.15.63h0s1.7-.81,2-1.44c0,.26-.11.59-.11.59h0s1.73-.87,2-1.52c0,.24-.05.54-.05.54h0s1.77-.93,2-1.59c0,.22,0,.48,0,.48h0s2-1.12,2-1.79c.06.3.11.87.11.87h0s1.89-1.47,1.89-2.16v-.06a1.75,1.75,0,0,0,.07.26c.08.27.19.61.19.61h0s1.88-1.62,1.78-2.33a.25.25,0,0,0,0-.13s.1.13.17.3.22.57.22.57h0s2-1.87,1.69-2.51h0a2.56,2.56,0,0,1,.29.42l.23.39s1.76-2,1.56-2.64h0a4.2,4.2,0,0,1,.33.75h0s.27-.29.59-.69l-.75,11a1.52,1.52,0,0,0,1.51,1.61h.17a1.51,1.51,0,0,0,1.51-1.62l-.74-10.95c.29.36.52.61.52.61h0a5.08,5.08,0,0,1,.33-.75h0c-.2.67,1.56,2.64,1.56,2.64l.23-.39a3.4,3.4,0,0,1,.29-.42h0c-.32.64,1.69,2.51,1.69,2.51h0s.11-.32.22-.57.14-.32.17-.3a.39.39,0,0,0-.05.13c-.1.71,1.78,2.33,1.78,2.33h0s.11-.34.19-.61c0-.11.06-.21.07-.26a.13.13,0,0,0,0,.06c0,.69,1.89,2.16,1.89,2.16h0s.06-.57.12-.87c0,.67,2,1.79,2,1.79h0s0-.26,0-.48c.21.66,2,1.59,2,1.59h0s0-.3-.06-.54c.25.65,2,1.52,2,1.52h0s-.06-.33-.1-.59c.29.63,2,1.44,2,1.44h0s-.09-.36-.14-.63c.33.62,2,1.36,2,1.36h0s-.13-.39-.2-.68c.34.61,2,1.31,2,1.31h0l-.24-.67a5.92,5.92,0,0,0,2,1.22h0a6.4,6.4,0,0,0-.25-.63,6.18,6.18,0,0,0,1.91,1.09h0s-.09-.24-.24-.54a6.66,6.66,0,0,0,1.83,1h0s-.08-.2-.21-.46a6.92,6.92,0,0,0,1.73.82h0s-.07-.16-.18-.38a7.5,7.5,0,0,0,2,.68,7.59,7.59,0,0,0-1.47-1.55h.42a7.46,7.46,0,0,0-1.48-1.23c.29,0,.51,0,.51,0h0a7,7,0,0,0-1.64-1.26c.34,0,.59,0,.59,0h0a6.42,6.42,0,0,0-1.8-1.27,5.45,5.45,0,0,0,.67,0h0a5.88,5.88,0,0,0-1.93-1.26l.71-.07h0s-1.32-1.19-2-1.24l.7-.11h0a5.8,5.8,0,0,0-2.08-1.22l.64-.13h0s-1.45-1.2-2.14-1.19c.25-.08.58-.16.58-.16h0s-1.52-1.2-2.22-1.15c.23-.09.52-.18.52-.18h0s-1.59-1.22-2.28-1.14l.44-.18h0s-1.88-1.38-2.47-1.07c.24-.18.74-.46.74-.46h0s-2.13-1.09-2.76-.8l0,0a1.73,1.73,0,0,0,.21-.17c.21-.18.47-.43.47-.43h0s-2.26-1-2.87-.62a.32.32,0,0,0-.1.1s.08-.15.21-.29l.19-.21c.94.31,1.81.5,1.81.5l-.08-.6a3.73,3.73,0,0,1,0-.7s0,0,0,0c.19,1,4.05,1.38,4.05,1.38h0s-.15-.44-.25-.8a1,1,0,0,1-.09-.46.45.45,0,0,0,.07.18c.51.86,4,1,4,1h0s-.18-.45-.33-.8l-.16-.33,0,.06c.61.73,4,.65,4,.65h0s-.47-.64-.67-1c.57.73,3.74.09,3.74.09h0s-.26-.24-.46-.46c.83.48,3.53-.17,3.53-.17h0s-.32-.26-.57-.49c.86.42,3.43-.31,3.43-.31h0s-.38-.27-.67-.5c.89.36,3.33-.43,3.33-.43h0l-.75-.47c.92.29,3.23-.56,3.23-.56h0l-.84-.45c.91.25,3.13-.67,3.13-.67h0l-.88-.4a7.72,7.72,0,0,0,3-.78h0s-.35-.16-.83-.33a8.09,8.09,0,0,0,2.8-.88h0a6.7,6.7,0,0,0-.74-.27,8.57,8.57,0,0,0,2.56-1h0s-.27-.1-.64-.21a8.83,8.83,0,0,0,2.33-1Z"/></g></g></svg>