<svg xmlns="http://www.w3.org/2000/svg" xmlns:xlink="http://www.w3.org/1999/xlink" viewBox="0 0 200 75.71"><defs><style>.cls-1{isolation:isolate;}.cls-2,.cls-3{fill:#2a2a2c;}.cls-2{mix-blend-mode:soft-light;}.cls-4{fill:url(#radial-gradient);}</style><radialGradient id="radial-gradient" cx="34.98" cy="40.73" r="16.09" gradientUnits="userSpaceOnUse"><stop offset="0" stop-color="#009952"/><stop offset="0.75" stop-color="#8ac640"/><stop offset="1" stop-color="#d0dd28"/></radialGradient></defs><title>Web 4</title><g class="cls-1"><g id="Layer_2" data-name="Layer 2"><g id="Layer_1-2" data-name="Layer 1"><path class="cls-2" d="M183.58,21.1h0Z"/><path class="cls-2" d="M178.29,38.68h0Z"/><path class="cls-3" d="M99.71,40H89.79a.49.49,0,0,0-.44.28L88,43.23a1,1,0,0,1-.89.57h-2a1,1,0,0,1-.89-1.36l8.18-18.23a1,1,0,0,1,.88-.58h2.9a1,1,0,0,1,.88.58l8.18,18.23a1,1,0,0,1-.89,1.36h-2a1,1,0,0,1-.88-.57l-1.32-2.94A.48.48,0,0,0,99.71,40ZM94.3,28.89l-3,6.89a.48.48,0,0,0,.44.68h6a.49.49,0,0,0,.45-.68l-3-6.89A.48.48,0,0,0,94.3,28.89Z"/><path class="cls-3" d="M120.17,43.47l-5.45-6.24a.46.46,0,0,0-.36-.17h-3a.49.49,0,0,0-.48.49v5.28a1,1,0,0,1-1,1h-1.86a1,1,0,0,1-1-1V24.58a1,1,0,0,1,1-1l8.62,0c4.75,0,7.26,3.2,7.26,6.69a5.94,5.94,0,0,1-4.35,6.15.48.48,0,0,0-.22.78L124.49,43a.48.48,0,0,1-.36.8H120.9A1,1,0,0,1,120.17,43.47Zm-9.25-15.81v5.49a.49.49,0,0,0,.48.48h5.31a3.23,3.23,0,1,0,0-6.45H111.4A.48.48,0,0,0,110.92,27.66Z"/><path class="cls-3" d="M140.61,43.8H127.45a1,1,0,0,1-1-1V24.6a1,1,0,0,1,1-1h13.16a1,1,0,0,1,1,1v1.75a1,1,0,0,1-1,1h-9.87a.49.49,0,0,0-.49.49v3.66a.49.49,0,0,0,.49.49h9.46a1,1,0,0,1,1,1v1.6a1,1,0,0,1-1,1h-9.46a.49.49,0,0,0-.49.49v3.58a.49.49,0,0,0,.49.49h9.87a1,1,0,0,1,1,1v1.8A1,1,0,0,1,140.61,43.8Z"/><path class="cls-3" d="M158.77,40h-9.92a.5.5,0,0,0-.45.28l-1.34,2.95a1,1,0,0,1-.88.57h-2a1,1,0,0,1-.88-1.36l8.18-18.23a1,1,0,0,1,.88-.58h2.89a1,1,0,0,1,.89.58l8.18,18.23a1,1,0,0,1-.89,1.36h-2a1,1,0,0,1-.89-.57l-1.31-2.94A.48.48,0,0,0,158.77,40Zm-5.41-11.11-3,6.89a.48.48,0,0,0,.44.68h6a.49.49,0,0,0,.45-.68l-3-6.89A.48.48,0,0,0,153.36,28.89Z"/><path class="cls-3" d="M186.1,27.23h-9.43a.49.49,0,0,0-.49.49v2.57a.49.49,0,0,0,.49.49h3.43c4.29,0,8.12,1.76,8.1,6.48S184.36,44,180.3,44s-7.6-1.33-8.18-5.18a1,1,0,0,1,1-1.13H175a1,1,0,0,1,.93.72c.49,1.63,2.66,2.08,4.34,2.08,1.85,0,4.18-.87,4.18-3.26s-2.25-2.94-4.32-2.94h-6.67a1,1,0,0,1-1-1V24.63a1,1,0,0,1,1-1H186.1a1,1,0,0,1,1,1v1.63A1,1,0,0,1,186.1,27.23Z"/><path class="cls-3" d="M191.32,40.58h1.57a.48.48,0,0,0,.48-.49V27.58a.48.48,0,0,0-.48-.49H191.2a1,1,0,0,1-1-1V24.6a1,1,0,0,1,1-1h5a1,1,0,0,1,1,1V40.09a.49.49,0,0,0,.48.49H199a1,1,0,0,1,1,1v1.28a1,1,0,0,1-1,1h-7.65a1,1,0,0,1-1-1V41.55A1,1,0,0,1,191.32,40.58Z"/><path class="cls-3" d="M153.88,63.71V59.43a.44.44,0,0,0-.44-.43h-5.38a.44.44,0,0,0-.44.43v4.28a.43.43,0,0,1-.43.43h-1.53a.44.44,0,0,1-.44-.43V51.85a.44.44,0,0,1,.44-.44h1.53a.44.44,0,0,1,.43.44v4.49a.44.44,0,0,0,.44.44h5.38a.44.44,0,0,0,.44-.44V51.85a.44.44,0,0,1,.44-.44h1.51a.44.44,0,0,1,.43.44V63.71a.43.43,0,0,1-.43.43h-1.51A.44.44,0,0,1,153.88,63.71Z"/><path class="cls-3" d="M168.81,64.13h-8.65a.44.44,0,0,1-.44-.44V51.83a.44.44,0,0,1,.44-.44h8.65a.44.44,0,0,1,.44.44v1.45a.44.44,0,0,1-.44.44h-6.27a.44.44,0,0,0-.44.44v2.05a.44.44,0,0,0,.44.44h6a.44.44,0,0,1,.43.44v1.36a.44.44,0,0,1-.43.44h-6a.44.44,0,0,0-.44.44v2a.44.44,0,0,0,.44.44h6.27a.44.44,0,0,1,.44.44v1.49A.44.44,0,0,1,168.81,64.13Z"/><path class="cls-3" d="M182.65,56l-3.22,4.29a.49.49,0,0,1-.38.18h0a.47.47,0,0,1-.38-.19L175.55,56a.44.44,0,0,0-.79.26v7.48a.44.44,0,0,1-.44.43H172.8a.43.43,0,0,1-.44-.43V51.85a.44.44,0,0,1,.44-.44h2.1a.44.44,0,0,1,.35.18l3.5,4.81a.44.44,0,0,0,.71,0l3.5-4.81a.44.44,0,0,1,.35-.18h2.09a.44.44,0,0,1,.43.44V63.71a.43.43,0,0,1-.43.43h-1.53a.44.44,0,0,1-.44-.43V56.22A.43.43,0,0,0,182.65,56Z"/><path class="cls-3" d="M195.33,60.38h-3.17a.44.44,0,0,0-.43.44v2.87a.44.44,0,0,1-.44.44h-1.53a.44.44,0,0,1-.43-.44V51.83a.44.44,0,0,1,.43-.44h5.57A4.5,4.5,0,1,1,195.33,60.38Zm-3.6-2.64a.44.44,0,0,0,.43.44h3.17a2.26,2.26,0,1,0,0-4.51h-3.17a.43.43,0,0,0-.43.44Z"/><rect class="cls-3" x="91.05" y="56.73" width="49.58" height="2.3" rx="1.15" ry="1.15"/><path class="cls-3" d="M88.75,56.73h0a1.15,1.15,0,0,0,0,2.3h0a1.15,1.15,0,0,0,0-2.3Z"/><path class="cls-3" d="M85.3,56.73h0a1.15,1.15,0,1,0,0,2.3h0a1.15,1.15,0,0,0,0-2.3Z"/><path class="cls-3" d="M66.9,37.67H54.67a18.82,18.82,0,0,0-.6-2.62l8.24-3.41a2,2,0,0,0-1.56-3.78l-8.24,3.41a19.34,19.34,0,0,0-1.61-2.5l9.94-9.93a2.55,2.55,0,0,0-3.61-3.61l-9.89,9.89a21.14,21.14,0,0,0-2.88-1.91l2.19-5.29a2,2,0,1,0-3.77-1.56l-2.2,5.29a19,19,0,0,0-2.63-.6V8.81a3.07,3.07,0,0,0-6.13,0V21.05a18.34,18.34,0,0,0-2.36.52L26.14,13.3a2.3,2.3,0,1,0-4.25,1.76l3.42,8.27A19.53,19.53,0,0,0,22.84,25l-10-10A2.55,2.55,0,0,0,9.25,18.6l10,10a20.55,20.55,0,0,0-1.75,2.68L9.23,27.83a2,2,0,0,0-1.56,3.78L15.9,35a20.82,20.82,0,0,0-.6,2.65H3.06a3.06,3.06,0,1,0,0,6.12H15.3a18.82,18.82,0,0,0,.6,2.62L7.66,49.82a2,2,0,0,0,.78,3.93,2.16,2.16,0,0,0,.78-.15l8.24-3.41a19.33,19.33,0,0,0,1.92,2.89l-10,10A2.55,2.55,0,1,0,13,66.69l10-10a19.43,19.43,0,0,0,2.48,1.6l-2.19,5.29a2,2,0,0,0,1.1,2.67,2.16,2.16,0,0,0,.78.15,2,2,0,0,0,1.89-1.26l2.2-5.29a19,19,0,0,0,2.63.6V72.65a3.07,3.07,0,0,0,6.13,0V60.41a18.72,18.72,0,0,0,2.36-.52l3.42,8.27A2.29,2.29,0,0,0,46,69.58a2.46,2.46,0,0,0,.88-.17,2.32,2.32,0,0,0,1.25-3l-3.42-8.27a18.67,18.67,0,0,0,2.48-1.64L51.69,61a2.55,2.55,0,0,0,3.61-3.61l-4.55-4.55a19.79,19.79,0,0,0,1.75-2.67l8.24,3.42a2.12,2.12,0,0,0,.78.15,2,2,0,0,0,.78-3.93l-8.23-3.41a20.82,20.82,0,0,0,.6-2.65H66.9a3.06,3.06,0,1,0,0-6.12ZM35,56.82A16.09,16.09,0,1,1,51.07,40.73,16.1,16.1,0,0,1,35,56.82Z"/><path class="cls-3" d="M2,29.26A2,2,0,1,0,.9,26.59,2,2,0,0,0,2,29.26Z"/><circle class="cls-3" cx="34.97" cy="1.92" r="1.92"/><circle class="cls-3" cx="47.11" cy="11.48" r="2.04"/><path class="cls-3" d="M58.89,62.1a2.56,2.56,0,1,0,1.81.75A2.56,2.56,0,0,0,58.89,62.1Zm.9,3.46a1.28,1.28,0,0,1-2.18-.9,1.28,1.28,0,0,1,.38-.91,1.28,1.28,0,0,1,1.8,0,1.27,1.27,0,0,1,0,1.81Z"/><path class="cls-3" d="M23.64,68.09a2.12,2.12,0,0,0-.78-.15,2,2,0,0,0-.78,3.93,2.12,2.12,0,0,0,.78.15,2,2,0,0,0,.78-3.93Zm-.07,2.18a.77.77,0,0,1-.71.48.72.72,0,0,1-.29-.06.79.79,0,0,1-.42-.42.73.73,0,0,1,0-.58.77.77,0,0,1,.71-.48.72.72,0,0,1,.29.06.79.79,0,0,1,.42.42A.83.83,0,0,1,23.57,70.27Z"/><path class="cls-3" d="M22.28,11.3a1.18,1.18,0,0,0,.48-.1,1.27,1.27,0,0,0-.48-2.45,1.37,1.37,0,0,0-.49.09,1.28,1.28,0,0,0,.49,2.46Zm-.59-1.52A.62.62,0,0,1,22,9.43a.69.69,0,0,1,.25,0,.63.63,0,0,1,.24,1.22.52.52,0,0,1-.24.05.63.63,0,0,1-.59-.39A.6.6,0,0,1,21.69,9.78Z"/><path class="cls-3" d="M62.87,14.47a1.19,1.19,0,0,0,.49-.1,1.27,1.27,0,0,0-.49-2.45,1.32,1.32,0,0,0-.48.09,1.28,1.28,0,0,0,.48,2.46Zm-.24-1.87a.67.67,0,0,1,.24,0,.63.63,0,0,1,.25,1.22.53.53,0,0,1-.25.05.63.63,0,0,1-.59-.39A.65.65,0,0,1,62.63,12.6Z"/><path class="cls-3" d="M47.21,70.26a1.28,1.28,0,1,0,1,2.36,1.28,1.28,0,0,0-1-2.36Z"/><path class="cls-3" d="M3.8,52.31A1.28,1.28,0,1,0,5.47,53,1.28,1.28,0,0,0,3.8,52.31Z"/><circle class="cls-4" cx="34.98" cy="40.73" r="16.09"/><path class="cls-3" d="M46.86,46.37h0l-.13,0a2.37,2.37,0,0,0,.61-.37,2.64,2.64,0,0,0-.71,0l.1-.1h0a2.37,2.37,0,0,0-.63.1l.12-.13h0a2.09,2.09,0,0,0-.67.12l.13-.15h0A2.25,2.25,0,0,0,45,46a1.78,1.78,0,0,0,.15-.17h0a2,2,0,0,0-.74.17l.15-.19h0a1.78,1.78,0,0,0-.76.19l.14-.2h0a2,2,0,0,0-.77.19l.12-.18h0a1.87,1.87,0,0,0-.78.2l.11-.17h0s-.64,0-.8.21l.09-.16h0s-.66,0-.81.22l.07-.14h0s-.77,0-.85.26a2.74,2.74,0,0,1,.09-.29h0s-.78.17-.88.38h0l0-.09s0-.05,0-.08l.34-.13-.18-.12-.19-.15h0c.3.18,1.4-.48,1.4-.48h0l-.27-.12a.44.44,0,0,1-.14-.09s0,0,.07,0c.35.09,1.27-.58,1.27-.58h0l-.29-.1-.12,0h0c.33,0,1.14-.68,1.14-.68h0a3.39,3.39,0,0,1-.41-.07c.32,0,.93-.76.93-.76h-.23c.31-.08.79-.79.79-.79h0l-.25,0c.3-.1.72-.8.72-.8h0l-.27,0c.28-.12.65-.82.65-.82h0l-.28.08c.27-.15.58-.83.58-.83h0l-.28.1a2.53,2.53,0,0,0,.53-.84h0l-.28.12a2.36,2.36,0,0,0,.46-.83h0L45,38.4a2.62,2.62,0,0,0,.39-.81h0l-.21.12a2.48,2.48,0,0,0,.31-.77h0l-.16.1a3,3,0,0,0,.25-.73h0l-.13.09a3,3,0,0,0,.17-.83,3.32,3.32,0,0,0-.5.65,1.33,1.33,0,0,0,0-.17h0a3.7,3.7,0,0,0-.41.63c0-.11,0-.2,0-.2h0a3.08,3.08,0,0,0-.43.68,1.3,1.3,0,0,0,0-.23h0a2.83,2.83,0,0,0-.47.73,1.3,1.3,0,0,0,0-.27h0a2.43,2.43,0,0,0-.49.78c0-.12,0-.29,0-.29h0a2.52,2.52,0,0,0-.52.79c0-.11,0-.28,0-.28h0s-.51.52-.55.8c0-.11,0-.26,0-.26h0s-.54.53-.57.81c0-.1,0-.24,0-.24h0s-.57.54-.59.82a2.11,2.11,0,0,1-.05-.22h0s-.61.55-.62.83a1.83,1.83,0,0,1,0-.19h0s-.74.62-.65.88a3.25,3.25,0,0,1-.14-.33h0s-.67.71-.6,1v0l-.06-.1L38.61,42h0s-.7.75-.58,1l0,0a.44.44,0,0,1-.11-.12l-.15-.21h0s-.77.82-.56,1.06h0L37,43.62l-.14-.15a5.12,5.12,0,0,0-.39.56c-.09,0-.31.12-.29.08.35-.16.77-1.53.77-1.53h0a2.63,2.63,0,0,1-.46.07h0c.37-.1.78-1.4.78-1.4h-.56c.4,0,.68-1.42.68-1.42h0l-.33.06c-.11,0-.2,0-.2,0H37c.37-.15.57-1.41.57-1.41h0l-.34.08-.15,0h0c.33-.19.46-1.41.46-1.41h0a4.08,4.08,0,0,1-.44.19c.33-.17.24-1.36.24-1.36h0l-.22.14c.25-.27.15-1.29.15-1.29h0L37,35c.23-.28.12-1.27.12-1.27h0l-.25.21c.21-.3.08-1.26.08-1.26h0s-.14.14-.26.24a2.63,2.63,0,0,0,0-1.23h0L36.5,32a2.58,2.58,0,0,0,0-1.21h0l-.24.29a2.89,2.89,0,0,0,0-1.18h0a2.85,2.85,0,0,0-.22.28A2.88,2.88,0,0,0,36,29h0a2.41,2.41,0,0,0-.19.25,3,3,0,0,0-.1-1.05h0l-.16.22a3.37,3.37,0,0,0-.13-1h0l-.12.19A3.69,3.69,0,0,0,35,26.6a3.78,3.78,0,0,0-.29,1.06l-.12-.19h0a3.62,3.62,0,0,0-.14,1c-.08-.13-.15-.22-.15-.22h0a3,3,0,0,0-.1,1.05A2.41,2.41,0,0,0,34,29h0a2.88,2.88,0,0,0-.06,1.12l-.22-.28h0a2.72,2.72,0,0,0,0,1.18l-.24-.29h0a2.58,2.58,0,0,0,0,1.21l-.26-.27h0a2.67,2.67,0,0,0,.06,1.23c-.12-.1-.26-.24-.26-.24h0s-.13,1,.08,1.26l-.25-.21h0s-.11,1,.12,1.27l-.24-.17h0s-.1,1,.15,1.29L32.64,36h0s-.09,1.19.24,1.36a4.6,4.6,0,0,1-.45-.19h0s.13,1.22.46,1.41h0l-.14,0-.35-.08h0s.2,1.26.57,1.41h.08s-.09,0-.2,0l-.33-.06h0s.28,1.38.67,1.42a0,0,0,0,1,0,0h-.54s.4,1.3.78,1.4h0a2.63,2.63,0,0,1-.46-.07h0s.42,1.37.77,1.53c0,0-.2-.06-.29-.08a5.12,5.12,0,0,0-.39-.56l-.15.15-.17.16h0c.21-.24-.56-1.06-.56-1.06h0a2.26,2.26,0,0,1-.16.21.5.5,0,0,1-.1.12l0,0c.12-.28-.58-1-.58-1h0l-.14.23-.06.1v0c.06-.27-.61-1-.61-1h0a3.25,3.25,0,0,1-.14.33c.09-.26-.65-.88-.65-.88h0a1.83,1.83,0,0,1-.05.19c0-.28-.62-.83-.62-.83h0s0,.12-.05.22c0-.28-.59-.82-.59-.82h0a2.36,2.36,0,0,1,0,.24c0-.28-.57-.81-.57-.81h0s0,.15,0,.26c0-.28-.55-.8-.55-.8h0s0,.17,0,.28a2.52,2.52,0,0,0-.52-.79h0s0,.17,0,.29a2.43,2.43,0,0,0-.49-.78h0a1.83,1.83,0,0,0,0,.27,2.58,2.58,0,0,0-.47-.73h0s0,.1,0,.23a3.08,3.08,0,0,0-.43-.68h0s0,.09,0,.2a3.29,3.29,0,0,0-.4-.63h0a1.33,1.33,0,0,0,0,.17,3.32,3.32,0,0,0-.5-.65,3.27,3.27,0,0,0,.16.83l-.12-.09h0a3,3,0,0,0,.25.73l-.17-.1h0a2.6,2.6,0,0,0,.32.77l-.21-.12h0a2.62,2.62,0,0,0,.39.81l-.24-.13h0a2.46,2.46,0,0,0,.45.83L24.91,39h0a2.37,2.37,0,0,0,.53.84l-.28-.1h0a2.51,2.51,0,0,0,.59.83l-.28-.08h0s.36.7.65.82l-.27,0h0s.42.7.72.8l-.25,0h0s.47.71.79.79h-.23s.61.8.93.76a3.39,3.39,0,0,1-.41.07h0s.81.71,1.14.68h0l-.12,0-.29.1h0s.92.67,1.27.58c0,0,0,0,.07,0a.44.44,0,0,1-.14.09l-.27.12h0s1.1.66,1.4.48h0l-.19.15-.18.12.34.13a.19.19,0,0,0,0,.08l0,.09h0c-.1-.21-.88-.38-.88-.38h0a2.74,2.74,0,0,1,.09.29c-.08-.21-.85-.26-.85-.26h0s0,.07.07.14c-.16-.17-.81-.22-.81-.22h0l.09.16c-.17-.17-.8-.21-.8-.21h0a1.89,1.89,0,0,1,.1.17c-.16-.16-.77-.2-.77-.2h0s.08.1.13.18a2,2,0,0,0-.77-.19h0l.14.2a1.78,1.78,0,0,0-.76-.19h0l.15.19a2,2,0,0,0-.74-.17h0A1.78,1.78,0,0,0,25,46a2.25,2.25,0,0,0-.71-.15h0l.13.15a2.09,2.09,0,0,0-.67-.12h0l.11.13a2.32,2.32,0,0,0-.62-.1h0l.09.1a2.57,2.57,0,0,0-.7,0,2.19,2.19,0,0,0,.61.37l-.13,0h0a2.37,2.37,0,0,0,.58.26l-.16,0h0a2.21,2.21,0,0,0,.65.24L24,47h0a1.89,1.89,0,0,0,.71.22,1.38,1.38,0,0,0-.21.09h0a1.85,1.85,0,0,0,.76.19l-.22.1h0a1.85,1.85,0,0,0,.79.16l-.21.12h0a2,2,0,0,0,.81.14l-.19.12h0a2,2,0,0,0,.84.11l-.17.13h0s.65.18.87.07l-.15.13h0s.68.16.89,0l-.12.12h0s.8.16.94,0c-.05.09-.17.25-.17.25h0s.84,0,1-.16v0l0,.09-.09.2h0s.89,0,1-.26a.06.06,0,0,0,0,0s0,0,0,.11a1.32,1.32,0,0,1-.06.2h0s1-.11,1-.35h0a1.31,1.31,0,0,1,0,.17l0,.15.45-.12,0,0,.06.07,0,0c-.15-.1-.72.16-.72.16h0l.11.1.06,0h0c-.15-.07-.69.2-.69.2h0l.18.12c-.14-.08-.62.27-.62.27h0L31,50c-.17,0-.57.28-.57.28h0l.13,0c-.18,0-.56.29-.56.29h0l.15,0c-.18,0-.54.3-.54.3h0l.17,0a1.5,1.5,0,0,0-.53.3h0l.18,0a1.5,1.5,0,0,0-.51.31h0l.18,0a1.5,1.5,0,0,0-.49.32h.17a1.52,1.52,0,0,0-.45.32h.15a1.9,1.9,0,0,0-.42.32h.13a1.78,1.78,0,0,0-.37.31h.1a2.27,2.27,0,0,0-.37.39,2.07,2.07,0,0,0,.52-.17l-.05.09h0a2.11,2.11,0,0,0,.44-.21.67.67,0,0,0-.06.11h0a1.54,1.54,0,0,0,.46-.24l-.05.14h0a1.52,1.52,0,0,0,.48-.27l-.07.15h0a1.42,1.42,0,0,0,.5-.3c0,.07-.06.17-.06.17h0a1.54,1.54,0,0,0,.5-.33l-.05.17h0a1.51,1.51,0,0,0,.5-.35l0,.16h0s.43-.2.5-.36l0,.15h0s.43-.22.5-.38l0,.13h0s.45-.23.51-.4a.84.84,0,0,1,0,.12h0s.52-.28.51-.45l0,.22h0S33,51.12,33,51v0s0,0,0,.07l0,.15h0s.48-.41.45-.59c0,0,0,0,0,0l0,.07.06.15h0s.5-.47.42-.63h0l.07.11.06.09s.44-.49.39-.66h0a1,1,0,0,1,.08.19h0l.15-.18-.19,2.79a.39.39,0,0,0,.38.41h0a.38.38,0,0,0,.38-.41l-.18-2.77.13.16h0a1,1,0,0,1,.08-.19h0c-.05.17.4.66.4.66l.06-.09a.42.42,0,0,1,.07-.11h0c-.08.16.42.63.42.63h0l.06-.15,0-.07s0,0,0,0c0,.18.45.59.45.59h0L37,51s0-.06,0-.07,0,0,0,0c0,.17.48.54.48.54h0l0-.22c0,.17.51.45.51.45h0a.84.84,0,0,1,0-.12c.06.17.5.4.5.4h0l0-.13c.06.16.5.38.5.38h0l0-.15c.07.16.5.36.5.36h0l0-.16c.08.16.5.35.5.35h0l-.05-.17a1.54,1.54,0,0,0,.5.33h0s0-.1-.06-.17a1.4,1.4,0,0,0,.49.3h0l-.07-.15a1.52,1.52,0,0,0,.48.27h0a1.19,1.19,0,0,0-.06-.14,1.67,1.67,0,0,0,.47.24h0a.67.67,0,0,0-.06-.11,2.11,2.11,0,0,0,.44.21h0l0-.09a2.07,2.07,0,0,0,.52.17,2.07,2.07,0,0,0-.38-.39h.11a2.13,2.13,0,0,0-.37-.31H42a1.9,1.9,0,0,0-.42-.32h.15a1.52,1.52,0,0,0-.45-.32h.17a1.5,1.5,0,0,0-.49-.32l.18,0h0a1.5,1.5,0,0,0-.51-.31l.18,0h0a1.5,1.5,0,0,0-.53-.3l.16,0h0s-.36-.3-.54-.3l.15,0h0s-.38-.3-.56-.29l.13,0h0S39.19,50,39,50l.12,0h0s-.48-.35-.63-.27l.19-.12h0s-.54-.27-.7-.2h0l.05,0a.94.94,0,0,0,.12-.1h0s-.57-.26-.72-.16l0,0,.06-.07,0,0,.46.12,0-.15a1.31,1.31,0,0,1,0-.17h0c.05.24,1,.35,1,.35h0a1.32,1.32,0,0,1-.06-.2c0-.06,0-.11,0-.11a.06.06,0,0,0,0,0c.13.22,1,.26,1,.26h0l-.09-.2,0-.09v0c.16.18,1,.16,1,.16h0s-.11-.16-.16-.25c.14.18.94,0,.94,0h0l-.12-.12c.21.12.89,0,.89,0h0l-.14-.13c.22.11.87-.07.87-.07h0l-.17-.13a2,2,0,0,0,.84-.11h0L43.55,48a2,2,0,0,0,.81-.14h0l-.21-.12a1.85,1.85,0,0,0,.79-.16h0l-.22-.1a1.85,1.85,0,0,0,.76-.19h0a1.38,1.38,0,0,0-.21-.09A1.89,1.89,0,0,0,46,47h0l-.19-.07a2.21,2.21,0,0,0,.65-.24h0l-.17,0a2.32,2.32,0,0,0,.59-.26Z"/></g></g></g></svg>