<svg xmlns="http://www.w3.org/2000/svg" xmlns:xlink="http://www.w3.org/1999/xlink" viewBox="0 0 355.93 76.79"><defs><style>.cls-1{isolation:isolate;}.cls-2,.cls-3{fill:#f0f8f1;}.cls-2{mix-blend-mode:soft-light;}.cls-4{fill:url(#radial-gradient);}.cls-5{fill:#d0dd28;}.cls-6{fill:#8ac640;}</style><radialGradient id="radial-gradient" cx="35.48" cy="41.31" r="35.48" gradientUnits="userSpaceOnUse"><stop offset="0" stop-color="#009952"/><stop offset="0.75" stop-color="#8ac640"/><stop offset="1" stop-color="#d0dd28"/></radialGradient></defs><title>Web 1</title><g class="cls-1"><g id="Layer_2" data-name="Layer 2"><g id="Layer_1-2" data-name="Layer 1"><path class="cls-2" d="M226.94,20.53h0S226.93,20.54,226.94,20.53Z"/><path class="cls-2" d="M219.49,45.22h0Z"/><path class="cls-3" d="M109.1,47.08H95.17a.67.67,0,0,0-.62.4l-1.88,4.14a1.37,1.37,0,0,1-1.25.8h-2.8a1.36,1.36,0,0,1-1.24-1.92L98.86,24.89a1.37,1.37,0,0,1,1.25-.81h4.06a1.36,1.36,0,0,1,1.24.81L116.9,50.5a1.36,1.36,0,0,1-1.24,1.92h-2.84a1.37,1.37,0,0,1-1.25-.81l-1.84-4.13A.68.68,0,0,0,109.1,47.08Zm-7.59-15.61-4.22,9.67a.69.69,0,0,0,.63,1h8.44a.69.69,0,0,0,.63-1l-4.23-9.67A.68.68,0,0,0,101.51,31.47Z"/><path class="cls-3" d="M137.85,52l-7.65-8.77a.68.68,0,0,0-.51-.23h-4.15a.68.68,0,0,0-.69.68v7.43a1.36,1.36,0,0,1-1.36,1.36h-2.62a1.36,1.36,0,0,1-1.36-1.36V25.41A1.37,1.37,0,0,1,120.88,24c4,0,8.07,0,12.11,0,6.68,0,10.2,4.5,10.2,9.39,0,3.63-1.54,7.28-6.11,8.65a.68.68,0,0,0-.31,1.1l7.15,8.06a.69.69,0,0,1-.51,1.14h-4.54A1.33,1.33,0,0,1,137.85,52Zm-13-22.21v7.71a.69.69,0,0,0,.69.68H133c3.4,0,4.86-2.27,4.86-4.53s-1.5-4.54-4.86-4.54h-7.45A.69.69,0,0,0,124.85,29.74Z"/><path class="cls-3" d="M166.56,52.42H148.08a1.36,1.36,0,0,1-1.37-1.36V25.45a1.37,1.37,0,0,1,1.37-1.37h18.48a1.37,1.37,0,0,1,1.37,1.37V27.9a1.37,1.37,0,0,1-1.37,1.36H152.7A.68.68,0,0,0,152,30V35.1a.67.67,0,0,0,.68.68H166a1.36,1.36,0,0,1,1.36,1.37V39.4A1.36,1.36,0,0,1,166,40.76H152.7a.68.68,0,0,0-.68.68v5a.68.68,0,0,0,.68.69h13.86a1.37,1.37,0,0,1,1.37,1.36v2.54A1.37,1.37,0,0,1,166.56,52.42Z"/><path class="cls-3" d="M192.07,47.08H178.14a.67.67,0,0,0-.62.4l-1.89,4.14a1.35,1.35,0,0,1-1.24.8h-2.8a1.37,1.37,0,0,1-1.25-1.92l11.49-25.61a1.37,1.37,0,0,1,1.24-.81h4.07a1.36,1.36,0,0,1,1.24.81L199.87,50.5a1.37,1.37,0,0,1-1.24,1.92h-2.84a1.37,1.37,0,0,1-1.25-.81l-1.85-4.13A.67.67,0,0,0,192.07,47.08Zm-7.59-15.61-4.22,9.67a.68.68,0,0,0,.63,1h8.44a.68.68,0,0,0,.62-1l-4.22-9.67A.68.68,0,0,0,184.48,31.47Z"/><path class="cls-3" d="M230.47,29.14H217.22a.68.68,0,0,0-.68.68v3.62a.67.67,0,0,0,.68.68H222c6,0,11.42,2.47,11.38,9.11,0,6.44-5.39,9.51-11.09,9.51s-10.68-1.87-11.5-7.28a1.37,1.37,0,0,1,1.35-1.58h2.66a1.38,1.38,0,0,1,1.31,1c.68,2.29,3.74,2.92,6.09,2.92,2.6,0,5.87-1.21,5.87-4.57,0-3.2-3.15-4.13-6.07-4.13h-9.36a1.37,1.37,0,0,1-1.37-1.36V25.49a1.37,1.37,0,0,1,1.37-1.37h17.79a1.37,1.37,0,0,1,1.37,1.37v2.29A1.36,1.36,0,0,1,230.47,29.14Z"/><path class="cls-3" d="M237.8,47.89H240a.68.68,0,0,0,.68-.69V29.62a.68.68,0,0,0-.68-.68h-2.37a1.36,1.36,0,0,1-1.36-1.36V25.45a1.36,1.36,0,0,1,1.36-1.37h7A1.36,1.36,0,0,1,246,25.45V47.2a.69.69,0,0,0,.69.69h1.88a1.36,1.36,0,0,1,1.36,1.36v1.81a1.36,1.36,0,0,1-1.36,1.36H237.8a1.36,1.36,0,0,1-1.36-1.36V49.25A1.36,1.36,0,0,1,237.8,47.89Z"/><path class="cls-3" d="M279.84,46.75v-6a.62.62,0,0,0-.62-.62h-7.56a.61.61,0,0,0-.61.62v6a.61.61,0,0,1-.62.61h-2.14a.61.61,0,0,1-.61-.61V30.09a.61.61,0,0,1,.61-.61h2.14a.61.61,0,0,1,.62.61V36.4a.61.61,0,0,0,.61.61h7.56a.61.61,0,0,0,.62-.61V30.09a.61.61,0,0,1,.61-.61h2.12a.61.61,0,0,1,.62.61V46.75a.61.61,0,0,1-.62.61h-2.12A.61.61,0,0,1,279.84,46.75Z"/><path class="cls-3" d="M300.81,47.34H288.65a.61.61,0,0,1-.61-.62V30.07a.61.61,0,0,1,.61-.62h12.16a.62.62,0,0,1,.62.62v2a.61.61,0,0,1-.62.61H292a.61.61,0,0,0-.61.62v2.88a.61.61,0,0,0,.61.61h8.45a.62.62,0,0,1,.62.62v1.91a.62.62,0,0,1-.62.62H292a.61.61,0,0,0-.61.61V43.4A.61.61,0,0,0,292,44h8.81a.62.62,0,0,1,.62.62v2.09A.62.62,0,0,1,300.81,47.34Z"/><path class="cls-3" d="M320.25,35.86l-4.52,6a.68.68,0,0,1-.53.26h0a.65.65,0,0,1-.53-.27l-4.39-6a.61.61,0,0,0-1.11.36V46.75a.61.61,0,0,1-.62.61h-2.14a.61.61,0,0,1-.61-.61V30.09a.61.61,0,0,1,.61-.61h3a.6.6,0,0,1,.49.25l4.92,6.75a.61.61,0,0,0,1,0l4.92-6.75a.6.6,0,0,1,.49-.25h2.93a.61.61,0,0,1,.62.61V46.75a.61.61,0,0,1-.62.61H322a.61.61,0,0,1-.61-.61V36.23A.62.62,0,0,0,320.25,35.86Z"/><path class="cls-3" d="M338.07,42.07h-4.45a.61.61,0,0,0-.61.62v4a.62.62,0,0,1-.62.62h-2.14a.62.62,0,0,1-.62-.62V30.06a.61.61,0,0,1,.62-.61c2.6,0,5.21,0,7.82,0C346.8,29.42,346.83,42.07,338.07,42.07ZM333,38.37a.61.61,0,0,0,.61.61h4.45a3.17,3.17,0,1,0,0-6.34h-4.45a.61.61,0,0,0-.61.62Z"/><path class="cls-3" d="M354.31,40h0a1.62,1.62,0,1,0,0-3.23h0a1.62,1.62,0,0,0,0,3.23Z"/><path class="cls-4" d="M67.85,38.2H55.44a19.72,19.72,0,0,0-.6-2.66l8.35-3.45a2.07,2.07,0,1,0-1.58-3.83l-8.36,3.45a19.81,19.81,0,0,0-1.63-2.53L61.7,19.11A2.59,2.59,0,1,0,58,15.44l-10,10a20.27,20.27,0,0,0-2.92-1.94l2.22-5.36a2.07,2.07,0,1,0-3.83-1.59L41.26,22a19.86,19.86,0,0,0-2.67-.6V8.93a3.11,3.11,0,0,0-6.22,0V21.35a18,18,0,0,0-2.4.53l-3.46-8.39a2.33,2.33,0,1,0-4.31,1.78l3.47,8.39a19.13,19.13,0,0,0-2.51,1.66L13,15.2a2.59,2.59,0,0,0-3.66,3.66L19.5,29a19.47,19.47,0,0,0-1.78,2.71L9.36,28.23a2.07,2.07,0,0,0-1.58,3.83l8.35,3.46a19.68,19.68,0,0,0-.61,2.68H3.11a3.11,3.11,0,1,0,0,6.21H15.52a19.38,19.38,0,0,0,.6,2.66L7.76,50.53a2.07,2.07,0,0,0,.8,4,2.21,2.21,0,0,0,.79-.15l8.36-3.46a19.83,19.83,0,0,0,1.94,2.93L9.51,64a2.59,2.59,0,0,0,1.83,4.42,2.56,2.56,0,0,0,1.83-.76L23.35,57.45a20.77,20.77,0,0,0,2.52,1.62l-2.22,5.37a2.06,2.06,0,0,0,1.12,2.7,2,2,0,0,0,.79.16A2.08,2.08,0,0,0,27.48,66l2.22-5.36a19.88,19.88,0,0,0,2.67.61V73.68a3.11,3.11,0,0,0,6.22,0V61.27a21.86,21.86,0,0,0,2.4-.53l3.46,8.38a2.33,2.33,0,1,0,4.31-1.78L45.29,59a19.92,19.92,0,0,0,2.52-1.66l4.61,4.61a2.59,2.59,0,0,0,3.67-3.66l-4.62-4.61a21,21,0,0,0,1.77-2.71l8.36,3.47a2.17,2.17,0,0,0,.79.15,2.07,2.07,0,0,0,.79-4l-8.35-3.47a19.68,19.68,0,0,0,.61-2.68H67.85a3.11,3.11,0,1,0,0-6.21ZM35.48,57.62A16.32,16.32,0,1,1,51.8,41.31,16.33,16.33,0,0,1,35.48,57.62Z"/><path class="cls-5" d="M2,29.67A2.07,2.07,0,1,0,.91,27,2.07,2.07,0,0,0,2,29.67Z"/><circle class="cls-5" cx="35.46" cy="1.94" r="1.94"/><circle class="cls-5" cx="47.78" cy="11.64" r="2.07"/><path class="cls-5" d="M59.72,63a2.59,2.59,0,1,0,1.84.76A2.57,2.57,0,0,0,59.72,63Zm.92,3.51a1.29,1.29,0,0,1-1.83,0,1.28,1.28,0,0,1-.38-.92,1.24,1.24,0,0,1,.38-.91,1.29,1.29,0,0,1,1.83,0,1.28,1.28,0,0,1,.38.91A1.32,1.32,0,0,1,60.64,66.49Z"/><path class="cls-5" d="M24,69.06a2,2,0,0,0-.8-.16,2.07,2.07,0,0,0-.79,4,2.21,2.21,0,0,0,.79.15,2.07,2.07,0,0,0,.8-4Zm-.08,2.21a.77.77,0,0,1-.72.48.8.8,0,0,1-.3-.06.79.79,0,0,1-.42-.42.88.88,0,0,1,0-.6.78.78,0,0,1,1-.42.78.78,0,0,1,.42,1Z"/><path class="cls-5" d="M22.59,11.46a1.27,1.27,0,0,0,.5-.1,1.29,1.29,0,0,0-.5-2.49,1.23,1.23,0,0,0-.49.1,1.29,1.29,0,0,0,.49,2.49ZM22,9.92a.63.63,0,0,1,.35-.35.74.74,0,0,1,.25-.05.66.66,0,0,1,.6.4.64.64,0,0,1-.35.84.53.53,0,0,1-.25.05.64.64,0,0,1-.6-.4A.69.69,0,0,1,22,9.92Z"/><path class="cls-5" d="M63.76,14.68a1.44,1.44,0,0,0,.5-.1,1.29,1.29,0,0,0-.5-2.49,1.41,1.41,0,0,0-.49.09,1.3,1.3,0,0,0,.49,2.5Zm-.24-1.9a.69.69,0,0,1,.24,0A.65.65,0,0,1,64,14a.7.7,0,0,1-.25,0,.64.64,0,0,1-.59-.4A.65.65,0,0,1,63.52,12.78Z"/><path class="cls-5" d="M47.87,71.25a1.29,1.29,0,1,0,1.69.7A1.3,1.3,0,0,0,47.87,71.25Z"/><path class="cls-5" d="M3.85,53.05a1.3,1.3,0,1,0,1.69.7A1.3,1.3,0,0,0,3.85,53.05Z"/><path class="cls-6" d="M47.52,47h0l-.14,0a2.53,2.53,0,0,0,.62-.38,2.45,2.45,0,0,0-.72,0l.1-.11h0a2.37,2.37,0,0,0-.63.1l.11-.13h0a2.17,2.17,0,0,0-.68.12l.13-.16h0a2.3,2.3,0,0,0-.72.15,1.08,1.08,0,0,0,.14-.17h0a1.79,1.79,0,0,0-.74.17l.15-.19h0a1.82,1.82,0,0,0-.77.19l.14-.2h0a1.9,1.9,0,0,0-.78.2,1.64,1.64,0,0,1,.13-.19h0a1.91,1.91,0,0,0-.79.2,1.89,1.89,0,0,1,.1-.17h0s-.64,0-.8.22a1,1,0,0,1,.09-.17h0s-.66,0-.82.23l.07-.15h0s-.78.05-.86.26a2.74,2.74,0,0,1,.09-.29h0s-.79.17-.89.38v0l0-.09s0-.06,0-.09l.34-.13-.18-.12a1.26,1.26,0,0,1-.19-.16s0,0,0,0c.3.19,1.42-.48,1.42-.48h0l-.27-.12c-.08,0-.15-.08-.14-.09l.06,0c.35.09,1.29-.59,1.29-.59h0L42.12,45,42,45h0c.34,0,1.16-.69,1.16-.69h0l-.41-.07c.32,0,.94-.78.94-.78h-.23c.32-.08.8-.8.8-.8h0l-.26,0c.31-.1.73-.82.73-.82h0l-.27.05c.29-.13.66-.83.66-.83h0l-.28.07a2.53,2.53,0,0,0,.59-.84h0l-.29.1c.26-.15.53-.84.53-.84h0l-.27.12a2.46,2.46,0,0,0,.46-.84h0a1.47,1.47,0,0,0-.24.12,2.64,2.64,0,0,0,.39-.82h0l-.21.12a2.62,2.62,0,0,0,.32-.78h0l-.17.11a2.75,2.75,0,0,0,.25-.74h0a.71.71,0,0,0-.13.09,3,3,0,0,0,.16-.85,3.18,3.18,0,0,0-.5.66,1.33,1.33,0,0,0,0-.17h0a3,3,0,0,0-.41.64c0-.12,0-.2,0-.2h0a2.82,2.82,0,0,0-.45.69c0-.14,0-.24,0-.24h0a2.89,2.89,0,0,0-.48.74,1.3,1.3,0,0,0,0-.27h0a2.48,2.48,0,0,0-.5.79c0-.13,0-.29,0-.29h0a2.47,2.47,0,0,0-.52.8c0-.12,0-.28,0-.28h0s-.51.52-.55.81c0-.12,0-.27,0-.27h0s-.55.54-.58.82c0-.1,0-.24,0-.24h0s-.58.55-.6.83a2.11,2.11,0,0,1,0-.22h0s-.62.56-.63.84a1.83,1.83,0,0,1,0-.19h0s-.75.63-.66.89c-.06-.11-.15-.33-.15-.33h0s-.68.73-.61,1v0l-.06-.1-.15-.23h0s-.7.76-.58,1l0,0a.44.44,0,0,1-.11-.12l-.16-.22h0s-.78.83-.57,1.08h0l-.18-.16a1.69,1.69,0,0,1-.14-.16,5.13,5.13,0,0,0-.4.57c-.09,0-.31.13-.3.08.36-.16.79-1.55.79-1.55h0a4.34,4.34,0,0,1-.47.07h0c.38-.1.79-1.42.79-1.42h-.57c.41,0,.69-1.43.69-1.43h0l-.34.06h-.2l.08,0c.38-.15.58-1.43.58-1.43h0l-.35.09-.15,0h0c.33-.2.46-1.43.46-1.43h0l-.45.19c.33-.17.24-1.38.24-1.38h0l-.23.15c.26-.28.16-1.32.16-1.32h0l-.25.18c.24-.29.13-1.29.13-1.29h0l-.25.21a2.78,2.78,0,0,0,.08-1.27h0s-.14.14-.26.24a2.72,2.72,0,0,0,.05-1.25h0l-.26.28a2.81,2.81,0,0,0,0-1.23h0l-.25.29a2.8,2.8,0,0,0,0-1.2h0s-.1.12-.22.29a3,3,0,0,0-.06-1.14h0a2.41,2.41,0,0,0-.19.25,3.36,3.36,0,0,0-.1-1.06h0s-.07.09-.15.22a3.27,3.27,0,0,0-.14-1h0l-.12.19a3.78,3.78,0,0,0-.3-1.08,3.78,3.78,0,0,0-.3,1.08l-.12-.19h0a3.27,3.27,0,0,0-.14,1,1.73,1.73,0,0,0-.16-.22h0a3.36,3.36,0,0,0-.1,1.06,2.41,2.41,0,0,0-.19-.25h0a3,3,0,0,0-.06,1.14c-.12-.17-.22-.29-.22-.29h0a2.8,2.8,0,0,0,0,1.2l-.25-.29h0a2.66,2.66,0,0,0,0,1.23l-.26-.28h0a2.76,2.76,0,0,0,.06,1.25c-.12-.1-.26-.24-.26-.24h0a2.81,2.81,0,0,0,.09,1.27l-.26-.21h0s-.11,1,.13,1.29l-.25-.18h0s-.1,1,.16,1.32l-.23-.15h0s-.09,1.21.24,1.38l-.45-.19h0s.13,1.23.46,1.43h0l-.15,0L32.88,39h0s.2,1.28.58,1.43l.08,0h-.2L33,40.38h0s.28,1.39.68,1.43c0,0,0,0,0,0h-.55s.41,1.32.79,1.42h0a4.34,4.34,0,0,1-.47-.07h0s.43,1.39.79,1.55c0,.05-.21-.06-.3-.08a5.13,5.13,0,0,0-.4-.57,1.69,1.69,0,0,1-.14.16l-.18.16h0c.21-.25-.57-1.08-.57-1.08h0l-.15.22a.44.44,0,0,1-.11.12l0,0c.12-.29-.58-1-.58-1h0l-.15.23-.06.1v0c.07-.27-.61-1-.61-1h0s-.09.22-.15.33c.09-.26-.66-.89-.66-.89h0a1.83,1.83,0,0,1-.05.19c0-.28-.63-.84-.63-.84h0a2.11,2.11,0,0,1-.05.22c0-.28-.6-.83-.6-.83h0s0,.14,0,.24c0-.28-.58-.82-.58-.82h0s0,.15,0,.27c0-.29-.55-.81-.55-.81h0s0,.16,0,.28a2.47,2.47,0,0,0-.52-.8h0s0,.16,0,.29a2.48,2.48,0,0,0-.5-.79h0a1.3,1.3,0,0,0,0,.27,2.89,2.89,0,0,0-.48-.74h0s0,.1,0,.24a2.82,2.82,0,0,0-.45-.69h0a1.78,1.78,0,0,0,0,.2,3,3,0,0,0-.41-.64h0a1.33,1.33,0,0,0,0,.17,3.18,3.18,0,0,0-.5-.66,3,3,0,0,0,.16.85l-.13-.09h0a2.75,2.75,0,0,0,.25.74l-.17-.11h0a2.62,2.62,0,0,0,.32.78l-.21-.12h0a2.64,2.64,0,0,0,.39.82l-.24-.12h0a2.46,2.46,0,0,0,.46.84l-.27-.12h0s.27.69.53.84l-.29-.1h0a2.53,2.53,0,0,0,.59.84l-.28-.07h0s.37.7.66.83l-.27-.05h0s.42.72.72.82l-.25,0h0s.48.72.8.8h-.23s.62.82.94.78l-.41.07h0s.82.72,1.16.69h0l-.12,0-.29.11h0s.93.68,1.29.59l.06,0s-.06.05-.14.09l-.27.12h0s1.12.67,1.42.48c0,0,0,0,0,0a1.26,1.26,0,0,1-.19.16l-.18.12.34.13s0,.06,0,.09l0,.09v0c-.1-.21-.89-.38-.89-.38h0a2.74,2.74,0,0,1,.09.29c-.08-.21-.86-.26-.86-.26h0l.07.15c-.16-.18-.83-.23-.83-.23h0a1,1,0,0,1,.09.17c-.16-.17-.8-.22-.8-.22h0a1.89,1.89,0,0,1,.1.17,1.91,1.91,0,0,0-.79-.2h0l.13.19a1.9,1.9,0,0,0-.78-.2h0l.14.2a1.82,1.82,0,0,0-.77-.19h0l.15.19a1.79,1.79,0,0,0-.74-.17h0a1.08,1.08,0,0,0,.14.17,2.3,2.3,0,0,0-.72-.15h0l.13.16a2.09,2.09,0,0,0-.67-.12h0l.11.13a2.37,2.37,0,0,0-.63-.1h0l.1.11a2.45,2.45,0,0,0-.72,0,2.53,2.53,0,0,0,.62.38l-.14,0h0a2.46,2.46,0,0,0,.6.26l-.16.05h0a2.14,2.14,0,0,0,.65.25,1.14,1.14,0,0,0-.19.07h0a2.18,2.18,0,0,0,.72.22,1.38,1.38,0,0,0-.21.09h0a2,2,0,0,0,.76.2l-.22.1h0a2,2,0,0,0,.8.17l-.21.12h0a2.08,2.08,0,0,0,.82.14l-.19.12h0s.63.21.85.11l-.17.13h0s.66.19.88.08l-.14.13h0s.69.16.9,0l-.12.12h0s.81.17,1,0c-.05.09-.17.26-.17.26h0s.86,0,1-.17l0,0a.41.41,0,0,0,0,.09l-.09.2h0s.9-.05,1-.27a.06.06,0,0,0,0,0s0,.05,0,.12a1.93,1.93,0,0,1-.06.2h0s1-.11,1-.35h0a.54.54,0,0,1,0,.17l0,.16a4.51,4.51,0,0,0,.46-.13l0,.05a.21.21,0,0,1,.06.08l0,0c-.15-.1-.73.16-.73.16h0a.72.72,0,0,0,.12.11l0,0h0c-.16-.07-.71.21-.71.21h0a1.54,1.54,0,0,1,.19.12c-.15-.08-.63.27-.63.27h0l.11.05c-.17,0-.58.29-.58.29h0l.13,0c-.18,0-.57.3-.57.3h0l.15,0c-.18,0-.55.3-.55.3h0l.17,0a1.49,1.49,0,0,0-.53.31h0l.17,0c-.17,0-.51.32-.51.32h.18a1.56,1.56,0,0,0-.5.33h.18a1.61,1.61,0,0,0-.46.32h.15a1.63,1.63,0,0,0-.42.32h.13a2,2,0,0,0-.38.31h.11a2,2,0,0,0-.38.4,1.84,1.84,0,0,0,.52-.18.55.55,0,0,0,0,.1h0a1.67,1.67,0,0,0,.44-.21l-.06.12h0a1.81,1.81,0,0,0,.47-.25,1.19,1.19,0,0,0-.06.14h0a1.43,1.43,0,0,0,.49-.28,1.36,1.36,0,0,0-.06.16h0a1.49,1.49,0,0,0,.5-.31c0,.07-.06.17-.06.17h0s.42-.18.5-.33l-.05.17h0s.43-.19.51-.35a1.47,1.47,0,0,1,0,.17h0s.44-.21.51-.37l0,.15h0s.44-.22.5-.39a1.38,1.38,0,0,1,0,.14h0s.45-.24.51-.41a.84.84,0,0,1,0,.12h0s.53-.29.52-.46l0,.22h0s.48-.38.48-.55v0a.25.25,0,0,0,0,.07l.05.15h0s.48-.41.45-.59c0,0,0,0,0,0s0,0,0,.08l.06.15h0s.51-.48.43-.64h0a.38.38,0,0,1,.08.11l.05.09s.45-.5.4-.67h0s.08.19.08.19h0l.15-.17-.19,2.82a.38.38,0,0,0,.39.41h0a.4.4,0,0,0,.39-.41l-.19-2.8.13.15h0a1,1,0,0,1,.08-.19h0c0,.17.4.67.4.67l.05-.09a.38.38,0,0,1,.08-.11h0c-.08.16.43.64.43.64h0l.05-.15s0-.08,0-.08,0,0,0,0c0,.18.45.59.45.59h0l.05-.15a.25.25,0,0,0,0-.07v0c0,.17.48.55.48.55h0L38,52c0,.17.52.46.52.46h0a.84.84,0,0,1,0-.12c.06.17.51.41.51.41h0a1.38,1.38,0,0,1,0-.14c.06.17.5.39.5.39h0s0-.09,0-.15c.07.16.51.37.51.37h0A1.47,1.47,0,0,1,40,53c.08.16.51.35.51.35h0a.94.94,0,0,1-.05-.17c.08.15.5.33.5.33h0s0-.1-.06-.17a1.49,1.49,0,0,0,.5.31h0a1.36,1.36,0,0,0-.06-.16,1.43,1.43,0,0,0,.49.28h0l-.06-.14a1.8,1.8,0,0,0,.46.25h0l-.06-.12a1.67,1.67,0,0,0,.44.21h0a.55.55,0,0,0,0-.1,1.84,1.84,0,0,0,.52.18,2,2,0,0,0-.38-.4h.11a2,2,0,0,0-.38-.31h.13a1.63,1.63,0,0,0-.42-.32h.15a1.61,1.61,0,0,0-.46-.32H42a1.48,1.48,0,0,0-.49-.33h.18s-.34-.31-.51-.32l.17,0h0a1.49,1.49,0,0,0-.53-.31l.17,0h0s-.37-.3-.55-.3l.15,0h0S40.2,51,40,51l.13,0h0s-.41-.31-.58-.29l.11-.05h0s-.48-.35-.63-.27a1.54,1.54,0,0,1,.19-.12h0s-.55-.28-.71-.21h0l0,0a.72.72,0,0,0,.12-.11h0s-.58-.26-.73-.16l0,0A.21.21,0,0,1,38,49.7l0-.05a4.51,4.51,0,0,0,.46.13l0-.16a.54.54,0,0,1,0-.17h0c.05.24,1,.35,1,.35h0a1.93,1.93,0,0,1-.06-.2c0-.07,0-.12,0-.12a.06.06,0,0,0,0,0c.13.22,1,.27,1,.27h0l-.09-.2a.41.41,0,0,0,0-.09l0,0c.15.19,1,.17,1,.17h0s-.12-.17-.17-.26c.15.19,1,0,1,0h0L42,49.31c.21.12.9,0,.9,0h0l-.14-.13c.22.11.88-.08.88-.08h0l-.17-.13c.22.1.85-.11.85-.11h0l-.19-.12a2.08,2.08,0,0,0,.82-.14h0l-.21-.12a2,2,0,0,0,.8-.17h0l-.22-.1a2,2,0,0,0,.76-.2h0a1.38,1.38,0,0,0-.21-.09,2.18,2.18,0,0,0,.72-.22h0a1.14,1.14,0,0,0-.19-.07,2.14,2.14,0,0,0,.65-.25h0l-.16-.05a2.46,2.46,0,0,0,.6-.26Z"/></g></g></g></svg>